<?xml version="1.0" encoding="UTF-8" standalone="no"?>
<svg
   xmlns:dc="http://purl.org/dc/elements/1.1/"
   xmlns:cc="http://creativecommons.org/ns#"
   xmlns:rdf="http://www.w3.org/1999/02/22-rdf-syntax-ns#"
   xmlns:svg="http://www.w3.org/2000/svg"
   xmlns="http://www.w3.org/2000/svg"
   xmlns:xlink="http://www.w3.org/1999/xlink"
   id="svg1457"
   version="1.1"
   viewBox="0 0 195.73969 287.79141"
   height="287.79141mm"
   width="195.73969mm">
  <defs
     id="defs1451">
    <linearGradient
       id="linearGradient983">
      <stop
         id="stop979"
         offset="0"
         style="stop-color:#35ced4;stop-opacity:1;" />
      <stop
         id="stop981"
         offset="1"
         style="stop-color:#0d98ed;stop-opacity:1" />
    </linearGradient>
    <linearGradient
       id="linearGradient2009">
      <stop
         id="stop2005"
         offset="0"
         style="stop-color:#35ced4;stop-opacity:1;" />
      <stop
         id="stop2007"
         offset="1"
         style="stop-color:#0d94e6;stop-opacity:1" />
    </linearGradient>
    <linearGradient
       gradientTransform="matrix(2.0527317,0,0,2.0527317,-438.56074,216.99097)"
       y2="-209.2538"
       x2="458.80804"
       y1="-209.2538"
       x1="363.45386"
       gradientUnits="userSpaceOnUse"
       id="linearGradient1029"
       xlink:href="#linearGradient2009" />
    <linearGradient
       gradientTransform="matrix(2.0527317,0,0,2.0527317,-438.56074,233.28453)"
       y2="-211.78754"
       x2="458.80804"
       y1="-211.78754"
       x1="363.45386"
       gradientUnits="userSpaceOnUse"
       id="linearGradient1054"
       xlink:href="#linearGradient983" />
  </defs>
  <metadata
     id="metadata1454">
    <rdf:RDF>
      <cc:Work
         rdf:about="">
        <dc:format>image/svg+xml</dc:format>
        <dc:type
           rdf:resource="http://purl.org/dc/dcmitype/StillImage" />
        <dc:title></dc:title>
      </cc:Work>
    </rdf:RDF>
  </metadata>
  <g
     transform="translate(1.58317,145.73041)"
     id="layer1">
    <g
       transform="translate(-309.09251,202.56935)"
       id="g1052">
      <path
         style="fill:url(#linearGradient1029);fill-opacity:1;stroke:none;stroke-width:0.26458332px;stroke-linecap:butt;stroke-linejoin:miter;stroke-opacity:1"
         d="m 503.24382,-89.448981 c -0.0304,0.01642 -28.91281,16.201143 -44.94518,18.149925 -17.68835,2.150072 -35.09974,-7.462049 -52.918,-7.56017 -19.30689,-0.106332 -38.27813,10.033096 -57.42632,7.56017 -14.43734,-1.864537 -40.42262,-16.508171 -40.43898,-16.517388 l -0.006,10.400925 c 0,0 26.00033,14.653343 40.44218,16.518455 19.14819,2.472905 38.11937,-7.666419 57.42632,-7.56017 17.81824,0.09812 35.22966,9.710242 52.91799,7.56017 16.0409,-1.949808 44.95045,-18.153107 44.95045,-18.153107 z"
         id="path953" />
      <path
         style="fill:#ffffff;fill-opacity:1;stroke:none;stroke-width:0.26458332px;stroke-linecap:butt;stroke-linejoin:miter;stroke-opacity:1"
         d="m 503.24382,-89.448981 c -0.23196,0.129937 -28.96907,16.207979 -44.94518,18.149925 -17.68835,2.150072 -35.09974,-7.462049 -52.918,-7.56017 -19.30689,-0.106332 -38.27813,10.033096 -57.42632,7.56017 -14.4085,-1.860802 -40.31923,-16.449935 -40.43898,-16.517388 l -0.006,4.621808 c 0,0 26.00033,14.653343 40.44218,16.518455 19.14819,2.472905 38.11937,-7.666419 57.42632,-7.56017 17.81824,0.09812 35.22966,9.710242 52.91799,7.56017 16.0409,-1.949808 44.95045,-18.153107 44.95045,-18.153107 z"
         id="path957" />
      <path
         id="path959"
         d="m 307.51253,-87.817635 c 0,0 26.00027,14.653077 40.44214,16.518189 19.14816,2.472905 38.1192,-7.665988 57.42609,-7.559739 17.81826,0.09812 35.23001,9.709811 52.91833,7.559739 16.04093,-1.949828 44.94994,-18.152738 44.94994,-18.152738 L 503.11294,-348.29976 H 307.59026 Z"
         style="fill:url(#linearGradient1054);fill-opacity:1;stroke:none;stroke-width:0.26458332px;stroke-linecap:butt;stroke-linejoin:miter;stroke-opacity:1" />
      <path
         id="path1061"
         d="m 342.16728,-130.93777 a 33.807046,33.807046 0 0 0 -33.80702,33.80701 33.807046,33.807046 0 0 0 1.80015,10.75207 c 6.78661,3.650393 26.01981,13.559504 37.79341,15.080024 5.50531,0.710984 10.99628,0.376861 16.48451,-0.454023 a 33.807046,33.807046 0 0 0 11.53596,-25.378071 33.807046,33.807046 0 0 0 -33.80701,-33.80701 z"
         style="opacity:1;vector-effect:none;fill:#ffffff;fill-opacity:0.27604167;stroke:none;stroke-width:0.13137712;stroke-linecap:round;stroke-linejoin:round;stroke-miterlimit:4;stroke-dasharray:none;stroke-dashoffset:0;stroke-opacity:1" />
      <path
         id="circle997"
         d="m 307.59014,-348.29976 -0.0349,118.26725 a 94.924926,94.924926 0 0 0 17.49648,1.66861 94.924926,94.924926 0 0 0 94.92378,-94.92376 94.924926,94.924926 0 0 0 -3.46345,-25.0121 z"
         style="opacity:1;vector-effect:none;fill:#ffffff;fill-opacity:0.27604167;stroke:none;stroke-width:0.22682203;stroke-linecap:round;stroke-linejoin:round;stroke-miterlimit:4;stroke-dasharray:none;stroke-dashoffset:0;stroke-opacity:1" />
      <path
         id="path1247"
         d="m 450.62787,-348.29974 a 38.099819,38.099819 0 0 0 -8.74704,24.26606 38.099819,38.099819 0 0 0 38.09961,38.09958 38.099819,38.099819 0 0 0 23.15994,-7.88027 l -0.0289,-54.48537 z"
         style="opacity:1;vector-effect:none;fill:#ffffff;fill-opacity:1;stroke:none;stroke-width:0.26500005;stroke-linecap:round;stroke-linejoin:round;stroke-miterlimit:4;stroke-dasharray:none;stroke-dashoffset:0;stroke-opacity:1" />
      <g
         style="stroke-width:4.60983324"
         transform="matrix(0.21692759,0,0,0.21692759,453.83746,-343.01125)"
         id="layer1-6">
        <g
           style="stroke-width:4.60983324"
           id="g847"
           transform="matrix(0.45633642,0,0,0.45633642,-164.65441,74.118337)">
          <path
             id="path826"
             d="m 511.9154,-109.3619 c -0.009,6e-5 -0.0172,4.6e-4 -0.0258,5.2e-4 -3.93192,0.0124 -7.73779,0.33235 -11.44839,0.96635 -6.87853,1.14857 -13.34159,3.32604 -19.53781,6.57686 -21.14852,11.09544 -34.46688,31.39929 -36.4572,55.57903 -1.29265,15.70369 3.89882,33.075893 13.74539,45.99668256 2.66515,3.49722004 6.55767,7.43595004 10.6593,10.89132044 0.005,0.004 0.0104,0.009 0.0155,0.0129 0.47495,0.41194 0.91623,0.77916 1.31054,1.08727 0.0627,0.049 0.12625,0.0964 0.18912,0.14521 1.79059,1.43763 3.59659,2.76714 5.33715,3.90468 4.25048,2.7779 9.06603,5.06019 14.1614,6.78873 4.3666,1.53129 8.91532,2.62273 13.64982,3.27215 2.85078,0.39104 5.78755,0.5705 8.76017,0.54932 2.97281,0.0212 5.90923,-0.15826 8.7602,-0.54932 4.73448,-0.64942 9.28375,-1.74086 13.65033,-3.27215 5.0954,-1.72854 9.91092,-4.01083 14.1614,-6.78873 1.74352,-1.13948 3.55285,-2.47144 5.34646,-3.91191 0.0596,-0.0463 0.11975,-0.0914 0.17931,-0.13798 0.39431,-0.30811 0.83608,-0.67533 1.31104,-1.08727 0.005,-0.005 0.0102,-0.008 0.0155,-0.0129 4.10162,-3.4553704 7.99415,-7.3941004 10.6593,-10.89132044 C 576.2047,-13.163247 581.39617,-30.53545 580.10355,-46.23914 c -1.99036,-24.17973 -15.30924,-44.48359 -36.45773,-55.57903 -6.19686,-3.25115 -12.66005,-5.4289 -19.53938,-6.57738 -3.70998,-0.63378 -7.51509,-0.95346 -11.44632,-0.96583 -0.1287,-9.1e-4 -0.25659,-2.7e-4 -0.385,-5.2e-4 -0.12001,2.3e-4 -0.23942,-8e-4 -0.35967,0 z m 0.35967,26.31312 c 11.28604,0.0144 21.29645,4.14619 29.21474,12.05973 19.3358,19.32414 15.37716,51.164103 -8.11681,65.2843926 -6.24718,3.75467 -13.60019,5.72636996 -21.09793,5.74899996 -7.49792,-0.0225 -14.85111,-1.99423996 -21.09845,-5.74899996 -23.49397,-14.1202896 -27.45261,-45.9602526 -8.11681,-65.2843926 7.91842,-7.91366 17.92898,-12.04547 29.21526,-12.05973 z m -0.0594,127.613923 c -7.78174,-0.003 -11.13057,0.1415 -14.81667,0.64027 -1.81422,0.24548 -3.60952,0.52738 -5.38882,0.84026 -5.20102,0.86329 -10.39156,2.11202 -15.5107,3.71812 -18.30128,5.62232 -34.47436,15.2487 -48.37689,28.82356 -20.41628,19.93507 -32.49062,44.671807 -35.91046,73.570177 -0.31311,2.64599 -0.46197,8.04278 -0.45062,13.24311 -10e-4,1.06201 0.005,2.10296 0.0248,3.09129 3e-5,0.002 -5e-5,0.003 0,0.005 0.0559,3.64652 0.1978,6.87256 0.4258,8.53179 1.95019,14.1588 6.3346,23.98238 14.03842,31.4544 7.36211,7.14058 17.34788,11.67411 32.01768,14.24514 0.38271,0.0689 0.76962,0.13523 1.15755,0.20101 0.64378,0.10916 1.29204,0.21576 1.95027,0.31625 0.55671,0.085 1.21078,0.1751 1.93942,0.26771 9.5e-4,1e-4 0.002,3.9e-4 0.003,5e-4 4.01584,0.54697 8.35694,0.96864 13.04829,1.27953 1.98157,0.1507 3.79616,0.26797 5.16713,0.32194 h 0.002 c 3.67615,0.14473 27.11238,0.19391 50.73954,0.17103 23.62698,0.0229 47.06289,-0.0263 50.73902,-0.17103 h 0.002 c 1.37099,-0.054 3.18555,-0.17124 5.16712,-0.32194 4.69239,-0.31094 9.03431,-0.7329 13.05087,-1.28003 5.3e-4,-8e-5 10e-4,5e-5 0.002,0 0.72795,-0.0925 1.38213,-0.18278 1.93839,-0.26771 0.65826,-0.10049 1.30649,-0.20709 1.95027,-0.31625 0.38793,-0.0658 0.77483,-0.13208 1.15755,-0.20101 14.6698,-2.57103 24.65557,-7.10456 32.01768,-14.24514 7.70382,-7.47202 12.08823,-17.2956 14.03842,-31.4544 0.22725,-1.65392 0.36851,-4.86403 0.42476,-8.49612 0.0202,-1.00071 0.0273,-2.05481 0.0258,-3.13161 0.0113,-5.20033 -0.1375,-10.59712 -0.45061,-13.24311 -3.41984,-28.89837 -15.49418,-53.635107 -35.91047,-73.570177 -13.90253,-13.57486 -30.07561,-23.20124 -48.37689,-28.82356 -5.11913,-1.6061 -10.30967,-2.85483 -15.51069,-3.71812 -1.7793,-0.31288 -3.5746,-0.59478 -5.38882,-0.84026 -3.68607,-0.49877 -7.03493,-0.64327 -14.81667,-0.64027 -0.0215,1e-5 -0.0375,-10e-6 -0.0589,0 -0.0216,-10e-6 -0.0378,1e-5 -0.0594,0 z m 0.0594,26.20925 c 3.9048,10e-4 7.80214,0.13334 10.17096,0.39688 16.28809,1.81207 32.06567,7.90637 45.18795,17.45474 0.35149,0.25577 0.68397,0.48975 0.99631,0.70539 7.68924,5.73619 14.55259,12.672667 20.32537,20.650927 1.6e-4,2.3e-4 -1.6e-4,8.1e-4 0,10e-4 1.3e-4,0.0234 0.004,0.0422 0.0129,0.0563 0.10991,0.17783 1.22968,1.86927 2.48822,3.75843 2.71415,4.07407 7.69628,14.00708 9.49659,18.93373 1.66587,4.55882 3.80952,13.07066 4.5811,18.19114 0.79994,5.30849 1.09646,17.76581 0.53745,22.57433 -0.8541,7.34676 -2.89047,12.78752 -5.91955,15.8166 -4.21611,4.21611 -12.03447,6.91071 -24.76696,8.45426 -2.70372,0.31358 -5.65041,0.57867 -8.90021,0.79997 -4.10491,0.2795 -29.13544,0.42225 -54.21014,0.42632 -25.07488,-0.004 -50.10626,-0.14682 -54.21116,-0.42632 -3.24917,-0.22127 -6.19488,-0.48647 -8.89818,-0.79997 -12.73336,-1.54353 -20.55222,-4.23796 -24.76849,-8.45426 -3.02908,-3.02908 -5.06545,-8.46984 -5.91955,-15.8166 -0.55901,-4.80852 -0.26249,-17.26584 0.53745,-22.57433 0.77158,-5.12048 2.91523,-13.63232 4.5811,-18.19114 1.8003,-4.92665 6.78243,-14.85966 9.49658,-18.93373 1.25855,-1.88916 2.37781,-3.5806 2.48769,-3.75843 0.009,-0.0141 0.0133,-0.0329 0.0134,-0.0563 1.5e-4,-2.3e-4 -1.6e-4,-8.1e-4 0,-10e-4 5.77392,-7.97981 12.63898,-14.917187 20.33002,-20.654027 0.31091,-0.21472 0.64164,-0.44796 0.99116,-0.70229 13.12227,-9.54837 28.90036,-15.64267 45.18845,-17.45474 2.36892,-0.26355 6.2665,-0.39555 10.17148,-0.39688 z"
             style="opacity:1;fill:#35ced4;fill-opacity:1;stroke-width:1.62624669" />
          <path
             id="path830"
             d="m 614.11365,224.89834 c -5.00171,-0.19691 -15.70449,-1.18948 -20.15808,-1.86945 -31.95195,-4.87835 -46.80025,-19.89345 -49.36638,-49.92092 -0.45342,-5.30578 -0.26812,-16.05405 0.371,-21.51944 2.0624,-17.63622 7.87176,-34.75344 16.76196,-49.38889 3.37335,-5.553367 8.41008,-11.571837 8.88489,-11.302225 1.26957,0.720916 7.42361,6.204398 10.1389,9.194505 3.84561,4.05574 8.27744,9.27306 7.99416,9.73141 -0.1099,0.17783 -1.80926,1.86899 -3.06781,3.75815 -2.71415,4.07408 -7.69636,14.00741 -9.49665,18.93406 -1.66588,4.55883 -3.80932,13.07055 -4.58091,18.19104 -0.79992,5.3085 -1.09654,17.76568 -0.53752,22.57419 0.85411,7.34675 2.89048,12.7879 5.91956,15.81698 5.0835,5.0835 15.39634,7.95657 33.25631,9.26494 7.65383,0.56069 100.57485,0.55154 108.83196,-0.0107 13.83887,-0.94235 22.35789,-2.64764 28.69625,-5.74426 6.69625,-3.27145 9.77015,-8.67245 11.01115,-19.34707 0.54469,-4.68536 0.24091,-17.55479 -0.53241,-22.55405 -0.77728,-5.02491 -3.00715,-13.87354 -4.57839,-18.16805 -1.90958,-5.21931 -6.83853,-14.9565 -9.91095,-19.57917 -15.70463,-23.628777 -40.63566,-38.892947 -68.60649,-42.004747 -4.76186,-0.52976 -15.69924,-0.52976 -20.46111,0 -16.28809,1.81207 -32.06585,7.90661 -45.18813,17.45498 -1.2239,0.89057 -2.65043,1.49209 -2.78378,1.49209 -0.13335,0 -1.19362,-1.145672 -2.28696,-2.498872 -2.81576,-3.48501 -9.55837,-10.40797 -13.08758,-13.43765 -1.64762,-1.41441 -2.71457,-2.262526 -2.71457,-2.397466 0,-0.13495 1.99543,-1.908492 4.32235,-3.630882 15.37162,-11.37802 33.56034,-19.14462 51.86089,-22.14467 7.61357,-1.2481 10.27778,-1.43935 20.10834,-1.44343 7.78174,-0.003 11.13058,0.14148 14.81667,0.64025 27.08748,3.66525 50.29515,14.84826 69.2761,33.38186 20.41628,19.93507 32.49066,44.672097 35.91049,73.570487 0.60455,5.10858 0.60367,20.4777 0,24.87083 -1.95019,14.1588 -6.33455,23.98242 -14.03837,31.45445 -10.51162,10.19533 -26.35765,15.08097 -53.57598,16.51848 -5.87398,0.31023 -95.68061,0.40881 -103.1875,0.11327 z M 656.0942,25.643633 C 643.73278,23.948053 632.63217,19.249493 622.7567,11.532843 619.56689,9.0403326 613.31177,2.7195826 610.88969,-0.45868744 601.03375,-13.391747 595.82841,-30.81757 597.14007,-46.48805 c 2.07231,-24.75793 16.16254,-45.65445 37.96385,-56.30231 10.13703,-4.95097 20.64015,-7.14505 32.27917,-6.74305 10.46442,0.36143 19.92809,2.82191 28.84254,7.49883 21.1485,11.09544 34.46698,31.39951 36.45731,55.57924 1.29264,15.70369 -3.89875,33.075863 -13.74534,45.99665256 -4.14505,5.43916004 -11.25564,11.95278044 -17.51145,16.04126044 -12.60862,8.24036 -30.17782,12.1397 -45.33195,10.06106 z m 16.50114,-26.48850044 c 7.98884,-1.42801996 15.70546,-5.51071996 21.59887,-11.42752956 16.44929,-16.514583 16.44639,-42.490003 -0.007,-58.933073 -7.93213,-7.92736 -17.96376,-12.06014 -29.27398,-12.06014 -11.31022,0 -21.34185,4.13278 -29.27398,12.06014 -19.33578,19.32414 -15.37706,51.164204 8.1169,65.2844826 8.39371,5.04476996 18.78342,6.87353996 28.83877,5.07611996 z"
             style="opacity:1;fill:#353535;fill-opacity:0.99607843;stroke-width:1.62624669" />
        </g>
      </g>
      <path
         id="path1521"
         d="m 501.63729,-171.39054 a 39.096057,39.096057 0 0 0 -39.09604,39.09604 39.096057,39.096057 0 0 0 39.09604,39.09606 39.096057,39.096057 0 0 0 1.6092,-0.05727 l -0.0402,-78.05631 a 39.096057,39.096057 0 0 0 -1.5689,-0.0784 z"
         style="opacity:1;vector-effect:none;fill:#ffffff;fill-opacity:0.2745098;stroke:none;stroke-width:0.26499999;stroke-linecap:round;stroke-linejoin:round;stroke-miterlimit:4;stroke-dasharray:none;stroke-dashoffset:0;stroke-opacity:1" />
    </g>
  </g>
</svg>
