<?xml version="1.0" encoding="UTF-8"?>
<svg width="52.917mm" height="53.423mm" version="1.1" viewBox="0 0 52.917 53.423" xmlns="http://www.w3.org/2000/svg" xmlns:cc="http://creativecommons.org/ns#" xmlns:dc="http://purl.org/dc/elements/1.1/" xmlns:osb="http://www.openswatchbook.org/uri/2009/osb" xmlns:rdf="http://www.w3.org/1999/02/22-rdf-syntax-ns#" xmlns:xlink="http://www.w3.org/1999/xlink">
 <defs>
  <linearGradient id="linearGradient956" x1="-44.547" x2="80.324" y1="35.122" y2="35.122" gradientTransform="matrix(.42377 0 0 .42377 18.878 11.828)" gradientUnits="userSpaceOnUse">
   <stop stop-color="#35ced4" offset="0"/>
   <stop stop-color="#0d94e6" offset="1"/>
  </linearGradient>
 </defs>
 <metadata>
  <rdf:RDF>
   <cc:Work rdf:about="">
    <dc:format>image/svg+xml</dc:format>
    <dc:type rdf:resource="http://purl.org/dc/dcmitype/StillImage"/>
    <dc:title/>
   </cc:Work>
  </rdf:RDF>
 </metadata>
 <path d="m26.458 0c-12.746 0-23.008 1.9801-23.008 4.4398v5.7563h-1.4567c-1.1046 0-1.9939 1.0319-1.9939 2.3136v11.336c0 1.2817 0.88929 2.3136 1.9939 2.3136h1.4567v14.727c0 3.4727 2.7957 6.2683 6.2683 6.2683h1.1398v3.4191c0 1.5785 1.2708 2.8493 2.8493 2.8493h5.4134c1.5785 0 2.8493-1.2708 2.8493-2.8493v-3.4191h8.8327v3.4191c0 1.5785 1.2708 2.8493 2.8493 2.8493h5.4136c1.5785 0 2.8493-1.2708 2.8493-2.8493v-3.4191h1.2822c3.4727 0 6.2683-2.7957 6.2683-6.2683v-14.727h1.4567c1.1046 0 1.9939-1.0319 1.9939-2.3136v-11.336c0-1.2817-0.88929-2.3136-1.9939-2.3136h-1.4567v-5.7563c0-2.4597-10.262-4.4398-23.008-4.4398zm-11.246 6.7098h22.492c2.333 0 4.2114 1.6618 4.2114 3.7261v15.328c0 2.0642-1.8783 3.7261-4.2114 3.7261h-22.492c-2.333 0-4.2114-1.6618-4.2114-3.7261v-15.328c0-2.0642 1.8783-3.7261 4.2114-3.7261zm-3.0426 29.479a3.4826 3.4826 0 0 1 3.4826 3.4826 3.4826 3.4826 0 0 1-3.4826 3.4826 3.4826 3.4826 0 0 1-3.4828-3.4826 3.4826 3.4826 0 0 1 3.4828-3.4826zm28.577 0a3.4826 3.4826 0 0 1 3.4828 3.4826 3.4826 3.4826 0 0 1-3.4828 3.4826 3.4826 3.4826 0 0 1-3.4826-3.4826 3.4826 3.4826 0 0 1 3.4826-3.4826z" fill="url(#linearGradient956)"/>
</svg>
