<?xml version="1.0" encoding="UTF-8"?>
<svg id="c" width="197.34mm" height="74.189mm" version="1.1" viewBox="0 0 197.34 74.189" xmlns="http://www.w3.org/2000/svg" xmlns:cc="http://creativecommons.org/ns#" xmlns:dc="http://purl.org/dc/elements/1.1/" xmlns:rdf="http://www.w3.org/1999/02/22-rdf-syntax-ns#" xmlns:xlink="http://www.w3.org/1999/xlink">
 <metadata id="f">
  <rdf:RDF>
   <cc:Work rdf:about="">
    <dc:format>image/svg+xml</dc:format>
    <dc:type rdf:resource="http://purl.org/dc/dcmitype/StillImage"/>
    <dc:title/>
   </cc:Work>
  </rdf:RDF>
 </metadata>
 <g id="a" transform="translate(14.727 53.15)">
  <g id="d" transform="translate(-309.09 202.57)">
   <g id="e" transform="translate(374 -401.88)">
    <path id="b" d="m-79.628 146.16v0.32608l-0.0078 3.6153s7.9951 3.6303 18.158 7.2595c10.163 3.6292 22.424 7.3148 31.586 7.3148 17.958 0 32.448-9.6449 48.924-9.6449 16.476 0 30.965 9.6449 48.924 9.6449 9.1616 0 21.421-3.6856 31.584-7.3148 10.163-3.6292 18.158-7.2595 18.158-7.2595l9e-3 -3.9414s-9.5067 3.8936-19.501 7.4626c-9.9944 3.569-22.195 7.0843-30.25 7.0843-16.476 0-30.965-9.6449-48.924-9.6449-17.958 0-32.448 9.6449-48.924 9.6449-8.0555 0-20.256-3.5153-30.25-7.0843-9.9944-3.569-19.486-7.4626-19.486-7.4626zm0 7.9215v0.32556l-0.0072 65.942h197.33l8e-3 -66.268s-9.5067 3.8936-19.501 7.4626c-9.9944 3.569-22.194 7.0838-30.25 7.0838-16.476 0-30.966-9.6444-48.924-9.6444-17.958 0-32.448 9.6444-48.924 9.6444-8.0555 0-20.255-3.5148-30.25-7.0838-9.9938-3.5688-19.485-7.4621-19.486-7.4626z" color="#000000" color-rendering="auto" dominant-baseline="auto" fill="#fff" image-rendering="auto" shape-rendering="auto" solid-color="#000000" style="font-feature-settings:normal;font-variant-alternates:normal;font-variant-caps:normal;font-variant-ligatures:normal;font-variant-numeric:normal;font-variant-position:normal;isolation:auto;mix-blend-mode:normal;paint-order:normal;shape-padding:0;text-decoration-color:#000000;text-decoration-line:none;text-decoration-style:solid;text-indent:0;text-orientation:mixed;text-transform:none;white-space:normal"/>
   </g>
  </g>
 </g>
</svg>
