<?xml version="1.0" encoding="UTF-8"?>
<svg id="f" width="52.917mm" height="41.418mm" version="1.1" viewBox="0 0 52.917 41.418" xmlns="http://www.w3.org/2000/svg" xmlns:cc="http://creativecommons.org/ns#" xmlns:dc="http://purl.org/dc/elements/1.1/" xmlns:rdf="http://www.w3.org/1999/02/22-rdf-syntax-ns#" xmlns:xlink="http://www.w3.org/1999/xlink">
 <defs id="g">
  <linearGradient id="a" x1="-1.113e-9" x2="52.917" y1="20.709" y2="20.709" gradientTransform="scale(.89769)" gradientUnits="userSpaceOnUse">
   <stop id="c" stop-color="#35ced4" offset="0"/>
   <stop id="b" stop-color="#0d94e6" offset="1"/>
  </linearGradient>
 </defs>
 <metadata id="e">
  <rdf:RDF>
   <cc:Work rdf:about="">
    <dc:format>image/svg+xml</dc:format>
    <dc:type rdf:resource="http://purl.org/dc/dcmitype/StillImage"/>
    <dc:title/>
   </cc:Work>
  </rdf:RDF>
 </metadata>
 <path id="d" d="m0.058289 0s-0.46623 6.8755 1.2384 14.18c0.85234 3.6525 2.238 7.497 4.7495 10.747 1.8451 2.388 4.4084 4.4129 7.5723 5.5276-0.02384 1.5038-0.03632 3.9566-0.03632 4.2365v6.7261h39.334v-6.7261c0-0.38846-0.02347-0.77125-0.069-1.1449-0.09414-4.6692-5.5686-8.6177-13.257-10.142-2.0655 2.5836-5.1925 4.0893-8.5003 4.0931-3.3284-3.16e-4 -6.4741-1.5215-8.5411-4.1303h-9.07e-4c-2.984-0.31826-9.3753-2.2368-10.984-4.3182-1.6083-2.0814-2.7678-5.0335-3.4766-8.0708-1.4176-6.0747-1.0705-10.543-1.0705-10.543zm31.031 1.6606a9.7905 9.7905 0 0 0-9.7914 9.7905 9.7905 9.7905 0 0 0 9.7914 9.7914 9.7905 9.7905 0 0 0 9.7896-9.7914 9.7905 9.7905 0 0 0-9.7896-9.7905z" fill="url(#a)"/>
</svg>
