<?xml version="1.0" encoding="UTF-8"?>
<!-- Created with Inkscape (http://www.inkscape.org/) -->
<svg width="449.44mm" height="447.05mm" version="1.1" viewBox="0 0 449.44 447.05" xmlns="http://www.w3.org/2000/svg" xmlns:cc="http://creativecommons.org/ns#" xmlns:dc="http://purl.org/dc/elements/1.1/" xmlns:rdf="http://www.w3.org/1999/02/22-rdf-syntax-ns#">
 <metadata>
  <rdf:RDF>
   <cc:Work rdf:about="">
    <dc:format>image/svg+xml</dc:format>
    <dc:type rdf:resource="http://purl.org/dc/dcmitype/StillImage"/>
    <dc:title/>
   </cc:Work>
  </rdf:RDF>
 </metadata>
 <g transform="translate(158.65 83.952)">
  <g transform="matrix(.45634 0 0 .45634 -164.65 74.118)">
   <path d="m179.74-346.39a575.4 575.4 0 0 0-166.58 404.25 575.4 575.4 0 0 0 575.41 575.41 575.4 575.4 0 0 0 409.48-171.86v-807.5a575.4 575.4 0 0 0-0.3171-0.29556z" fill="#fff"/>
   <g transform="matrix(1.4213 0 0 1.4213 -267.94 20.897)" stroke-width=".24821">
    <path d="m511.92-109.36c-9e-3 6e-5 -0.0172 4.6e-4 -0.0258 5.2e-4 -3.9319 0.0124-7.7378 0.33235-11.448 0.96635-6.8785 1.1486-13.342 3.326-19.538 6.5769-21.149 11.095-34.467 31.399-36.457 55.579-1.2926 15.704 3.8988 33.076 13.745 45.997 2.6652 3.4972 6.5577 7.436 10.659 10.891 5e-3 4e-3 0.0104 9e-3 0.0155 0.0129 0.47495 0.41194 0.91623 0.77916 1.3105 1.0873 0.0627 0.049 0.12625 0.0964 0.18912 0.14521 1.7906 1.4376 3.5966 2.7671 5.3372 3.9047 4.2505 2.7779 9.066 5.0602 14.161 6.7887 4.3666 1.5313 8.9153 2.6227 13.65 3.2722 2.8508 0.39104 5.7876 0.5705 8.7602 0.54932 2.9728 0.0212 5.9092-0.15826 8.7602-0.54932 4.7345-0.64942 9.2838-1.7409 13.65-3.2722 5.0954-1.7285 9.9109-4.0108 14.161-6.7887 1.7435-1.1395 3.5528-2.4714 5.3465-3.9119 0.0596-0.0463 0.11975-0.0914 0.17931-0.13798 0.39431-0.30811 0.83608-0.67533 1.311-1.0873 5e-3 -5e-3 0.0102-8e-3 0.0155-0.0129 4.1016-3.4554 7.9942-7.3941 10.659-10.891 9.8466-12.921 15.038-30.293 13.745-45.997-1.9904-24.18-15.309-44.484-36.458-55.579-6.1969-3.2512-12.66-5.4289-19.539-6.5774-3.71-0.63378-7.5151-0.95346-11.446-0.96583-0.1287-9.1e-4 -0.25659-2.7e-4 -0.385-5.2e-4 -0.12001 2.3e-4 -0.23942-8e-4 -0.35967 0zm0.35967 26.313c11.286 0.0144 21.296 4.1462 29.215 12.06 19.336 19.324 15.377 51.164-8.1168 65.284-6.2472 3.7547-13.6 5.7264-21.098 5.749-7.4979-0.0225-14.851-1.9942-21.098-5.749-23.494-14.12-27.453-45.96-8.1168-65.284 7.9184-7.9137 17.929-12.045 29.215-12.06zm-0.0594 127.61c-7.7817-3e-3 -11.131 0.1415-14.817 0.64027-1.8142 0.24548-3.6095 0.52738-5.3888 0.84026-5.201 0.86329-10.392 2.112-15.511 3.7181-18.301 5.6223-34.474 15.249-48.377 28.824-20.416 19.935-32.491 44.672-35.91 73.57-0.31311 2.646-0.46197 8.0428-0.45062 13.243-1e-3 1.062 5e-3 2.103 0.0248 3.0913 3e-5 2e-3 -5e-5 3e-3 0 5e-3 0.0559 3.6465 0.1978 6.8726 0.4258 8.5318 1.9502 14.159 6.3346 23.982 14.038 31.454 7.3621 7.1406 17.348 11.674 32.018 14.245 0.38271 0.0689 0.76962 0.13523 1.1576 0.20101 0.64378 0.10916 1.292 0.21576 1.9503 0.31625 0.55671 0.085 1.2108 0.1751 1.9394 0.26771 9.5e-4 1e-4 2e-3 3.9e-4 3e-3 5e-4 4.0158 0.54697 8.3569 0.96864 13.048 1.2795 1.9816 0.1507 3.7962 0.26797 5.1671 0.32194h2e-3c3.6762 0.14473 27.112 0.19391 50.74 0.17103 23.627 0.0229 47.063-0.0263 50.739-0.17103h2e-3c1.371-0.054 3.1856-0.17124 5.1671-0.32194 4.6924-0.31094 9.0343-0.7329 13.051-1.28 5.3e-4 -8e-5 1e-3 5e-5 2e-3 0 0.72795-0.0925 1.3821-0.18278 1.9384-0.26771 0.65826-0.10049 1.3065-0.20709 1.9503-0.31625 0.38793-0.0658 0.77483-0.13208 1.1576-0.20101 14.67-2.571 24.656-7.1046 32.018-14.245 7.7038-7.472 12.088-17.296 14.038-31.454 0.22725-1.6539 0.36851-4.864 0.42476-8.4961 0.0202-1.0007 0.0273-2.0548 0.0258-3.1316 0.0113-5.2003-0.1375-10.597-0.45061-13.243-3.4198-28.898-15.494-53.635-35.91-73.57-13.903-13.575-30.076-23.201-48.377-28.824-5.1191-1.6061-10.31-2.8548-15.511-3.7181-1.7793-0.31288-3.5746-0.59478-5.3888-0.84026-3.6861-0.49877-7.0349-0.64327-14.817-0.64027-0.0215 1e-5 -0.0375-1e-5 -0.0589 0-0.0216-1e-5 -0.0378 1e-5 -0.0594 0zm0.0594 26.209c3.9048 1e-3 7.8021 0.13334 10.171 0.39688 16.288 1.8121 32.066 7.9064 45.188 17.455 0.35149 0.25577 0.68397 0.48975 0.99631 0.70539 7.6892 5.7362 14.553 12.673 20.325 20.651 1.6e-4 2.3e-4 -1.6e-4 8.1e-4 0 1e-3 1.3e-4 0.0234 4e-3 0.0422 0.0129 0.0563 0.10991 0.17783 1.2297 1.8693 2.4882 3.7584 2.7142 4.0741 7.6963 14.007 9.4966 18.934 1.6659 4.5588 3.8095 13.071 4.5811 18.191 0.79994 5.3085 1.0965 17.766 0.53745 22.574-0.8541 7.3468-2.8905 12.788-5.9196 15.817-4.2161 4.2161-12.034 6.9107-24.767 8.4543-2.7037 0.31358-5.6504 0.57867-8.9002 0.79997-4.1049 0.2795-29.135 0.42225-54.21 0.42632-25.075-4e-3 -50.106-0.14682-54.211-0.42632-3.2492-0.22127-6.1949-0.48647-8.8982-0.79997-12.733-1.5435-20.552-4.238-24.768-8.4543-3.0291-3.0291-5.0654-8.4698-5.9196-15.817-0.55901-4.8085-0.26249-17.266 0.53745-22.574 0.77158-5.1205 2.9152-13.632 4.5811-18.191 1.8003-4.9266 6.7824-14.86 9.4966-18.934 1.2586-1.8892 2.3778-3.5806 2.4877-3.7584 9e-3 -0.0141 0.0133-0.0329 0.0134-0.0563 1.5e-4 -2.3e-4 -1.6e-4 -8.1e-4 0-1e-3 5.7739-7.9798 12.639-14.917 20.33-20.654 0.31091-0.21472 0.64164-0.44796 0.99116-0.70229 13.122-9.5484 28.9-15.643 45.188-17.455 2.3689-0.26355 6.2665-0.39555 10.171-0.39688z" fill="#35ced4"/>
    <path d="m614.11 224.9c-5.0017-0.19691-15.704-1.1895-20.158-1.8694-31.952-4.8784-46.8-19.893-49.366-49.921-0.45342-5.3058-0.26812-16.054 0.371-21.519 2.0624-17.636 7.8718-34.753 16.762-49.389 3.3734-5.5534 8.4101-11.572 8.8849-11.302 1.2696 0.72092 7.4236 6.2044 10.139 9.1945 3.8456 4.0557 8.2774 9.2731 7.9942 9.7314-0.1099 0.17783-1.8093 1.869-3.0678 3.7582-2.7142 4.0741-7.6964 14.007-9.4966 18.934-1.6659 4.5588-3.8093 13.071-4.5809 18.191-0.79992 5.3085-1.0965 17.766-0.53752 22.574 0.85411 7.3468 2.8905 12.788 5.9196 15.817 5.0835 5.0835 15.396 7.9566 33.256 9.2649 7.6538 0.56069 100.57 0.55154 108.83-0.0107 13.839-0.94235 22.358-2.6476 28.696-5.7443 6.6962-3.2714 9.7702-8.6724 11.011-19.347 0.54469-4.6854 0.24091-17.555-0.53241-22.554-0.77728-5.0249-3.0072-13.874-4.5784-18.168-1.9096-5.2193-6.8385-14.956-9.911-19.579-15.705-23.629-40.636-38.893-68.606-42.005-4.7619-0.52976-15.699-0.52976-20.461 0-16.288 1.8121-32.066 7.9066-45.188 17.455-1.2239 0.89057-2.6504 1.4921-2.7838 1.4921s-1.1936-1.1457-2.287-2.4989c-2.8158-3.485-9.5584-10.408-13.088-13.438-1.6476-1.4144-2.7146-2.2625-2.7146-2.3975 0-0.13495 1.9954-1.9085 4.3224-3.6309 15.372-11.378 33.56-19.145 51.861-22.145 7.6136-1.2481 10.278-1.4394 20.108-1.4434 7.7817-3e-3 11.131 0.14148 14.817 0.64025 27.087 3.6652 50.295 14.848 69.276 33.382 20.416 19.935 32.491 44.672 35.91 73.57 0.60455 5.1086 0.60367 20.478 0 24.871-1.9502 14.159-6.3346 23.982-14.038 31.454-10.512 10.195-26.358 15.081-53.576 16.518-5.874 0.31023-95.681 0.40881-103.19 0.11327zm41.981-199.25c-12.361-1.6956-23.462-6.3941-33.338-14.111-3.1898-2.4925-9.4449-8.8133-11.867-11.992-9.8559-12.933-15.061-30.359-13.75-46.029 2.0723-24.758 16.163-45.654 37.964-56.302 10.137-4.951 20.64-7.145 32.279-6.743 10.464 0.36143 19.928 2.8219 28.843 7.4988 21.148 11.095 34.467 31.4 36.457 55.579 1.2926 15.704-3.8988 33.076-13.745 45.997-4.145 5.4392-11.256 11.953-17.511 16.041-12.609 8.2404-30.178 12.14-45.332 10.061zm16.501-26.489c7.9888-1.428 15.705-5.5107 21.599-11.428 16.449-16.515 16.446-42.49-7e-3 -58.933-7.9321-7.9274-17.964-12.06-29.274-12.06s-21.342 4.1328-29.274 12.06c-19.336 19.324-15.377 51.164 8.1169 65.284 8.3937 5.0448 18.783 6.8735 28.839 5.0761z" fill="#353535" fill-opacity=".99608"/>
   </g>
  </g>
 </g>
</svg>
