<?xml version="1.0" encoding="UTF-8"?>
<svg width="52.917mm" height="28.275mm" version="1.1" viewBox="0 0 52.917 28.275" xmlns="http://www.w3.org/2000/svg" xmlns:cc="http://creativecommons.org/ns#" xmlns:dc="http://purl.org/dc/elements/1.1/" xmlns:rdf="http://www.w3.org/1999/02/22-rdf-syntax-ns#" xmlns:xlink="http://www.w3.org/1999/xlink">
 <defs>
  <linearGradient id="linearGradient833" x1="21.923" x2="35.743" y1="6.9099" y2="6.9099" gradientTransform="scale(.89769)" gradientUnits="userSpaceOnUse">
   <stop stop-color="#35ced4" offset="0"/>
   <stop stop-color="#0d94e6" offset="1"/>
  </linearGradient>
 </defs>
 <metadata>
  <rdf:RDF>
   <cc:Work rdf:about="">
    <dc:format>image/svg+xml</dc:format>
    <dc:type rdf:resource="http://purl.org/dc/dcmitype/StillImage"/>
    <dc:title/>
   </cc:Work>
  </rdf:RDF>
 </metadata>
 <path d="m25.884 0a6.2029 6.2029 0 0 0-6.2032 6.2028 6.2029 6.2029 0 0 0 6.2032 6.2032 6.2029 6.2029 0 0 0 6.2028-6.2032 6.2029 6.2029 0 0 0-6.2028-6.2028zm-16.101 2.5983a4.8328 4.8328 0 0 0-4.8329 4.8329 4.8328 4.8328 0 0 0 4.8329 4.8329 4.8328 4.8328 0 0 0 4.8329-4.8329 4.8328 4.8328 0 0 0-4.8329-4.8329zm33.456 0a4.8328 4.8328 0 0 0-4.8329 4.8329 4.8328 4.8328 0 0 0 4.8329 4.8329 4.8328 4.8328 0 0 0 4.8324-4.8329 4.8328 4.8328 0 0 0-4.8324-4.8329zm-37.243 10.117c-3.454 0.66336-5.9217 2.4265-5.9639 4.5142-0.020196 0.16573-0.031081 0.33476-0.031081 0.50704v3.276c0 2.0032 1.411 3.6156 3.1638 3.6156h8.4652c-0.04706-0.32572-0.07144-0.65776-0.07144-0.99366v-4.2043c0-0.26494 0.01557-0.5255 0.04361-0.78074 0.07598-1.986 1.2805-3.6714 2.8942-4.8728 0.2662-0.19818 0.54568-0.38625 0.83687-0.56456-0.55417-0.19359-1.1508-0.35523-1.7809-0.48013a4.8328 4.8328 0 0 1-3.7687 1.8148 4.8328 4.8328 0 0 1-3.7877-1.8315zm33.456 0c-0.97803 0.18783-1.877 0.46385-2.6642 0.81043 0.13367 0.09146 0.26426 0.18504 0.39199 0.28112 1.5922 1.1978 2.7786 2.8737 2.8539 4.8431 0.02802 0.25512 0.0436 0.51532 0.0436 0.78027v4.2043c0 0.33591-0.02439 0.66795-0.07144 0.99366h9.7483c1.7528 0 3.1638-1.6124 3.1638-3.6156v-3.276c0-0.17225-0.01043-0.34134-0.03062-0.50704-0.04174-2.0705-2.4696-3.8216-5.879-4.4975a4.8328 4.8328 0 0 1-3.7687 1.8148 4.8328 4.8328 0 0 1-3.7877-1.8315zm-18.429 0.26999c-4.4332 0.85143-7.6006 3.114-7.6548 5.7936-0.02592 0.21272-0.03943 0.43017-0.03943 0.65131v4.2043c0 2.5711 1.8112 4.6408 4.0609 4.6408h16.857c2.2497 0 4.0605-2.0697 4.0605-4.6408v-4.2043c0-0.22109-0.01351-0.43863-0.03943-0.65131-0.05358-2.6575-3.1694-4.9048-7.5453-5.7723a6.2029 6.2029 0 0 1-4.8375 2.3292 6.2029 6.2029 0 0 1-4.8616-2.3506z" fill="url(#linearGradient833)"/>
</svg>
