<?xml version="1.0" encoding="UTF-8"?>
<!-- Created with Inkscape (http://www.inkscape.org/) -->
<svg id="a" width="8.6531mm" height="5.8906mm" version="1.1" viewBox="0 0 8.6531 5.8906" xmlns="http://www.w3.org/2000/svg" xmlns:cc="http://creativecommons.org/ns#" xmlns:dc="http://purl.org/dc/elements/1.1/" xmlns:rdf="http://www.w3.org/1999/02/22-rdf-syntax-ns#">
 <metadata id="d">
  <rdf:RDF>
   <cc:Work rdf:about="">
    <dc:format>image/svg+xml</dc:format>
    <dc:type rdf:resource="http://purl.org/dc/dcmitype/StillImage"/>
    <dc:title/>
   </cc:Work>
  </rdf:RDF>
 </metadata>
 <g id="c" transform="translate(-94.179 -129.58)" fill="#fff">
  <path id="e" d="m100.87 129.58a1.9575 1.9575 0 0 0-1.9575 1.9575 1.9575 1.9575 0 0 0 1.403 1.8764 4.1257 4.1257 0 0 1-0.83561 1.6092l0.44803 0.44751a4.1257 4.1257 0 0 0 2.8996-3.9331 1.9575 1.9575 0 0 0-1.9575-1.9575z"/>
  <path id="b" d="m96.137 129.58a1.9575 1.9575 0 0 0-1.9575 1.9575 1.9575 1.9575 0 0 0 1.403 1.8764 4.1257 4.1257 0 0 1-0.83561 1.6092l0.44803 0.44751a4.1257 4.1257 0 0 0 2.8996-3.9331 1.9575 1.9575 0 0 0-1.9575-1.9575z"/>
 </g>
</svg>
