<?xml version="1.0" encoding="UTF-8"?>
<svg id="c" width="52.917mm" height="37.274mm" version="1.1" viewBox="0 0 52.917 37.274" xmlns="http://www.w3.org/2000/svg" xmlns:cc="http://creativecommons.org/ns#" xmlns:dc="http://purl.org/dc/elements/1.1/" xmlns:osb="http://www.openswatchbook.org/uri/2009/osb" xmlns:rdf="http://www.w3.org/1999/02/22-rdf-syntax-ns#" xmlns:xlink="http://www.w3.org/1999/xlink">
 <defs id="d">
  <linearGradient id="a" x1="-1117.7" x2="-210.24" y1="93.913" y2="93.913" gradientTransform="matrix(.058315 0 0 .058315 65.177 13.16)" gradientUnits="userSpaceOnUse">
   <stop id="f" stop-color="#35ced4" offset="0"/>
   <stop id="e" stop-color="#0d94e6" offset="1"/>
  </linearGradient>
 </defs>
 <metadata id="g">
  <rdf:RDF>
   <cc:Work rdf:about="">
    <dc:format>image/svg+xml</dc:format>
    <dc:type rdf:resource="http://purl.org/dc/dcmitype/StillImage"/>
    <dc:title/>
   </cc:Work>
  </rdf:RDF>
 </metadata>
 <path id="b" d="m5.2393 0c-0.8053-4.4998e-5 -1.4581 0.65279-1.4581 1.4581v26.615c1e-5 0.60823 0.37256 1.1292 0.90182 1.3478h-4.683v2.9156h29.475v3.4795a1.458 1.458 0 0 0 1.4581 1.4576h13.203a1.458 1.458 0 0 0 1.4576-1.4576v-3.4795h7.3235v-2.9156h-4.0566c0.52923-0.21866 0.9017-0.73965 0.90171-1.3478v-26.615c4e-5 -0.80512-0.65252-1.4579-1.4576-1.4581zm1.458 2.9156h40.149v23.7h-1.253v-12.673a1.458 1.458 0 0 0-1.4576-1.4576h-13.203a1.458 1.458 0 0 0-1.4581 1.4576v12.673h-22.777zm25.693 12.484h10.287v17.364h-10.287zm1.4296 18.452a0.8195 0.8195 0 0 1 0.81948 0.81948 0.8195 0.8195 0 0 1-0.81948 0.81948 0.8195 0.8195 0 0 1-0.81948-0.81948 0.8195 0.8195 0 0 1 0.81948-0.81948zm2.8947 0h1.639v1.639h-1.639zm4.5336 0a0.8195 0.8195 0 0 1 0.81948 0.81948 0.8195 0.8195 0 0 1-0.81948 0.81948 0.8195 0.8195 0 0 1-0.81948-0.81948 0.8195 0.8195 0 0 1 0.81948-0.81948z" color="#000000" color-rendering="auto" dominant-baseline="auto" fill="url(#a)" image-rendering="auto" shape-rendering="auto" solid-color="#000000" style="font-feature-settings:normal;font-variant-alternates:normal;font-variant-caps:normal;font-variant-ligatures:normal;font-variant-numeric:normal;font-variant-position:normal;isolation:auto;mix-blend-mode:normal;shape-padding:0;text-decoration-color:#000000;text-decoration-line:none;text-decoration-style:solid;text-indent:0;text-orientation:mixed;text-transform:none;white-space:normal"/>
</svg>
