<?xml version="1.0" encoding="UTF-8"?>
<!-- Created with Inkscape (http://www.inkscape.org/) -->
<svg id="svg1810" width="173.02mm" height="173.02mm" version="1.1" viewBox="0 0 173.02 173.02" xmlns="http://www.w3.org/2000/svg" xmlns:cc="http://creativecommons.org/ns#" xmlns:dc="http://purl.org/dc/elements/1.1/" xmlns:rdf="http://www.w3.org/1999/02/22-rdf-syntax-ns#">
 <metadata id="metadata1807">
  <rdf:RDF>
   <cc:Work rdf:about="">
    <dc:format>image/svg+xml</dc:format>
    <dc:type rdf:resource="http://purl.org/dc/dcmitype/StillImage"/>
    <dc:title/>
   </cc:Work>
  </rdf:RDF>
 </metadata>
 <g id="layer1" transform="translate(-3.4886 -114.23)">
  <g id="g4618" transform="matrix(1.1415 0 0 1.1415 -12.736 -29.292)">
   <path id="rect837" d="m41.772 125.73h96.456c15.268 0 27.559 12.291 27.559 27.559v96.456c0 15.268-12.291 27.559-27.559 27.559h-96.456c-15.268 0-27.559-12.291-27.559-27.559v-96.456c0-15.268 12.291-27.559 27.559-27.559z" fill="#8b8b8b"/>
   <path id="path2367" d="m90 172.48 46.721 46.72c6.3492 6.2398-3.1216 15.453-9.3442 9.3441l-37.376-37.376-37.376 37.376c-6.2229 6.1084-15.694-3.1042-9.3442-9.3441z" fill="#fff"/>
  </g>
 </g>
</svg>
