<?xml version="1.0" encoding="UTF-8"?>
<svg id="c" width="52.917mm" height="49.488mm" version="1.1" viewBox="0 0 52.917 49.488" xmlns="http://www.w3.org/2000/svg" xmlns:cc="http://creativecommons.org/ns#" xmlns:dc="http://purl.org/dc/elements/1.1/" xmlns:osb="http://www.openswatchbook.org/uri/2009/osb" xmlns:rdf="http://www.w3.org/1999/02/22-rdf-syntax-ns#" xmlns:xlink="http://www.w3.org/1999/xlink">
 <defs id="d">
  <linearGradient id="a" x1="-185.65" x2="-12.727" y1="1.8907" y2="1.8907" gradientTransform="matrix(.30601 0 0 .30601 56.811 24.166)" gradientUnits="userSpaceOnUse">
   <stop id="f" stop-color="#35ced4" offset="0"/>
   <stop id="e" stop-color="#0d94e6" offset="1"/>
  </linearGradient>
 </defs>
 <metadata id="g">
  <rdf:RDF>
   <cc:Work rdf:about="">
    <dc:format>image/svg+xml</dc:format>
    <dc:type rdf:resource="http://purl.org/dc/dcmitype/StillImage"/>
    <dc:title/>
   </cc:Work>
  </rdf:RDF>
 </metadata>
 <path id="b" d="m40.359 0.0038946a12.242 12.242 0 0 0-8.3365 3.5703 12.242 12.242 0 0 0-2.2269 14.23l-25.452 25.452c-0.806 0.806-0.806 2.1039 0 2.9099l2.4005 2.4005c0.806 0.806 2.1037 0.806 2.9097 0l14.786-14.786c5.3538 5.0277 10.912 9.8962 16.089 15.061 0.86399 0.86226 2.2528 0.86313 3.1159 0l0.75652-0.75653c0.86313-0.86313 0.86313-2.2528 0-3.1159-5.3177-5.3177-10.003-10.741-15.047-16.104l5.7445-5.7445a12.242 12.242 0 0 0 14.236-2.2332 12.242 12.242 0 0 0 2.7312-13.133l-10.483 10.483-6.9107-6.9107 10.477-10.477a12.242 12.242 0 0 0-4.7903-0.84587zm-35.42 2.0143a0.033396 0.033396 0 0 0-0.0155 4e-3c-0.81969 0.42868-1.5679 0.98079-2.2232 1.6336-1.5e-4 1.51e-4 -2e-3 8e-5 -3e-3 4.59e-4a0.033396 0.033396 0 0 0-6e-3 4e-3 0.033396 0.033396 0 0 0-2e-3 0.0024l6.1e-4 6.43e-4c-3.5864 3.5862-3.5864 9.4015 0 12.988 1.277 1.2735 2.8994 2.1432 4.6671 2.5003 1.1027 0.30322 2.244 0.30248 3.3146 0.02799 1.8478 2.3533 3.8229 4.6076 5.883 6.7958l4.9698-4.9698c-2.0352-1.9002-4.1795-3.7823-6.4825-5.6379 0.94704-2.3315 0.47477-5.1049-1.4164-6.9961-1.2895-1.2851-3.0617-1.9597-4.8788-1.8692a0.033396 0.033396 0 0 0-0.0343-0.02467c-1.0283 0.05382-2.0312-0.32949-2.7604-1.0565-0.87939-0.87969-1.2494-2.1475-0.98014-3.3618a0.033396 0.033396 0 0 0-0.0327-0.0408z" fill="url(#a)"/>
</svg>
