<?xml version="1.0" standalone="no"?>
<!DOCTYPE svg PUBLIC "-//W3C//DTD SVG 20010904//EN"
 "http://www.w3.org/TR/2001/REC-SVG-20010904/DTD/svg10.dtd">
<svg version="1.0" xmlns="http://www.w3.org/2000/svg"
 width="512.000000pt" height="512.000000pt" viewBox="0 0 512.000000 512.000000"
 preserveAspectRatio="xMidYMid meet">
<metadata>
Created by potrace 1.11, written by Peter Selinger 2001-2013
</metadata>
<g transform="translate(0.000000,512.000000) scale(0.100000,-0.100000)"
fill="#000000" stroke="none">
<path d="M3730 4813 c-14 -6 -139 -100 -150 -113 -38 -46 -692 -488 -865 -584
-108 -60 -142 -87 -156 -125 -5 -13 -12 -96 -14 -185 -4 -153 -8 -209 -20
-301 -2 -22 -7 -62 -11 -90 -14 -116 -82 -462 -113 -575 -6 -19 -17 -60 -25
-90 -32 -117 -79 -266 -92 -291 -25 -50 -75 -86 -172 -125 -53 -21 -101 -42
-106 -46 -6 -4 -16 -8 -24 -8 -7 0 -32 -9 -55 -19 -23 -11 -96 -40 -162 -66
-260 -101 -290 -118 -358 -208 -36 -47 -42 -65 -127 -357 -78 -271 -82 -283
-102 -322 -10 -21 -60 -80 -111 -131 -50 -52 -112 -116 -136 -143 -155 -172
-269 -292 -438 -463 -106 -107 -193 -201 -193 -210 0 -27 29 -61 52 -61 46 0
238 121 643 403 148 104 307 209 353 235 115 64 144 98 182 219 17 54 34 105
37 113 3 8 7 17 8 20 13 51 36 108 99 244 83 179 141 213 661 393 182 63 204
73 240 108 42 43 56 79 71 180 47 336 178 891 261 1105 3 8 7 20 8 25 12 49
105 289 140 360 164 336 474 531 770 485 75 -12 89 -16 160 -50 148 -71 256
-220 263 -364 7 -125 -52 -253 -164 -355 -104 -95 -266 -125 -468 -86 -117 22
-125 16 -128 -100 -2 -101 -4 -98 85 -166 45 -35 89 -69 97 -76 196 -159 233
-176 312 -143 35 14 36 16 288 300 129 146 251 282 270 304 19 21 46 51 60 66
14 15 57 63 95 105 165 183 166 219 5 357 -141 122 -459 427 -704 677 -72 73
-145 139 -163 147 -33 14 -76 17 -103 7z"/>
<path d="M3690 3970 c-69 -20 -139 -81 -161 -138 -57 -150 57 -317 216 -314
61 1 96 13 144 51 128 102 102 317 -46 383 -48 21 -116 29 -153 18z"/>
</g>
</svg>
