<?xml version="1.0" standalone="no"?>
<!DOCTYPE svg PUBLIC "-//W3C//DTD SVG 20010904//EN"
 "http://www.w3.org/TR/2001/REC-SVG-20010904/DTD/svg10.dtd">
<svg version="1.0" xmlns="http://www.w3.org/2000/svg"
 width="512.000000pt" height="512.000000pt" viewBox="0 0 512.000000 512.000000"
 preserveAspectRatio="xMidYMid meet">
<metadata>
Created by potrace 1.11, written by Peter Selinger 2001-2013
</metadata>
<g transform="translate(0.000000,512.000000) scale(0.100000,-0.100000)"
fill="#000000" stroke="none">
<path d="M2748 4978 c-2 -6 -23 -12 -46 -13 -66 -3 -68 -4 -70 -30 -1 -18 6
-29 28 -40 17 -9 30 -13 30 -10 0 4 14 -2 30 -12 17 -9 30 -21 30 -25 0 -4 16
-6 34 -3 28 3 36 0 41 -16 5 -15 15 -19 50 -17 28 1 49 -4 59 -15 12 -12 29
-15 64 -11 89 8 110 11 122 19 9 5 11 4 6 -3 -4 -7 5 -6 26 2 58 25 53 35 -54
109 -77 54 -115 71 -120 55 -3 -8 -19 -6 -50 6 -34 14 -51 15 -66 7 -13 -7
-30 -7 -53 -1 -44 13 -56 13 -61 -2z"/>
<path d="M2017 4963 c-3 -2 -34 -6 -69 -8 -35 -2 -64 -4 -65 -5 -3 -3 -6 -4
-55 -13 -82 -17 -277 -141 -255 -163 10 -10 147 -23 147 -14 0 3 17 6 38 5 20
0 40 3 43 7 3 5 17 9 32 10 15 1 27 7 27 12 0 5 3 6 6 3 9 -8 141 61 174 90
14 13 32 26 42 28 9 3 19 12 22 20 6 16 5 16 -31 20 -12 1 -28 5 -36 8 -8 3
-17 3 -20 0z"/>
<path d="M2365 4962 c-3 -3 -20 -7 -37 -8 -50 -5 -78 -14 -154 -50 -42 -20
-125 -105 -122 -124 3 -12 17 -15 71 -13 64 3 81 5 145 19 15 4 34 8 42 9 8 1
24 6 35 10 21 7 33 11 50 15 6 1 19 7 30 13 11 6 23 10 28 9 4 -1 7 3 7 8 0 6
6 10 14 10 8 0 16 4 18 9 2 5 9 11 17 13 19 4 61 43 61 57 0 6 -8 12 -17 12
-10 1 -29 3 -43 5 -50 7 -140 10 -145 6z"/>
<path d="M3318 4873 c-17 -9 -25 -19 -22 -28 6 -14 63 -52 127 -84 15 -8 27
-23 27 -33 0 -11 14 -25 38 -36 20 -9 40 -21 43 -25 3 -5 9 -8 13 -8 26 4 37
-1 35 -16 -4 -33 12 -50 71 -78 45 -21 60 -34 60 -49 0 -31 19 -50 60 -61 11
-2 86 -27 100 -32 8 -3 24 -8 34 -10 11 -2 24 -7 30 -11 6 -5 18 -8 26 -8 18
1 22 55 8 101 -5 17 -11 41 -14 54 -3 14 -8 29 -12 35 -3 6 -7 17 -8 24 -4 26
-27 42 -59 42 -30 0 -40 8 -85 69 -3 4 -18 16 -35 28 -24 16 -35 18 -53 10
-19 -9 -27 -7 -45 12 -29 28 -68 61 -76 62 -3 0 -15 2 -26 4 -11 2 -22 0 -25
-5 -3 -4 -32 2 -65 14 -109 41 -118 43 -147 29z"/>
<path d="M1396 4758 c-7 -4 -27 -9 -45 -10 -17 -1 -31 -6 -31 -10 0 -4 -7 -5
-15 -2 -8 4 -15 1 -15 -5 0 -6 -9 -11 -19 -11 -11 0 -22 -4 -26 -10 -3 -5 -12
-7 -20 -3 -8 3 -15 0 -15 -5 0 -6 -20 -21 -45 -33 -38 -19 -178 -145 -210
-190 -23 -32 -55 -98 -55 -113 0 -9 -4 -16 -8 -16 -4 0 -8 -9 -8 -19 0 -27 25
-31 72 -14 21 8 44 15 49 17 20 5 82 40 128 72 26 19 50 34 54 34 9 0 234 232
258 266 11 16 19 32 17 37 -1 4 3 7 10 7 6 0 8 3 4 8 -10 9 -63 9 -80 0z"/>
<path d="M1834 4721 c-2 -3 -19 -6 -37 -8 -70 -6 -86 -9 -93 -16 -4 -4 -15 -7
-24 -7 -27 0 -120 -40 -179 -78 -58 -36 -127 -104 -137 -134 -3 -10 -9 -18
-14 -18 -8 0 -21 -33 -24 -60 -1 -12 13 -15 74 -13 100 3 140 7 140 14 0 6 28
18 52 23 3 0 10 4 14 9 4 4 16 7 26 7 10 0 18 4 18 8 0 4 22 19 49 33 27 13
47 27 44 31 -2 5 3 8 11 8 9 0 16 4 16 8 0 4 18 19 39 32 21 14 37 28 34 33
-2 4 1 7 8 7 6 0 34 22 61 49 59 58 57 62 -45 74 -15 2 -30 1 -33 -2z"/>
<path d="M3100 4705 c-14 -8 -20 -14 -13 -15 7 0 10 -6 7 -14 -6 -15 50 -63
67 -58 8 2 13 -12 10 -30 -3 -18 33 -45 55 -42 23 2 53 -30 40 -43 -9 -9 46
-34 61 -29 8 3 16 -1 19 -9 4 -8 10 -12 15 -9 5 3 9 2 8 -3 -7 -39 -1 -42 98
-42 53 0 102 4 109 10 13 11 4 49 -31 129 -2 3 -6 15 -10 27 -8 25 -25 34 -55
28 -14 -3 -33 8 -56 31 -35 34 -67 43 -79 24 -3 -6 -18 1 -33 15 -15 14 -32
26 -39 26 -7 1 -19 2 -25 3 -7 1 -21 -2 -30 -6 -10 -5 -18 -5 -18 0 0 5 -6 9
-12 9 -7 0 -24 3 -38 7 -14 3 -36 0 -50 -9z"/>
<path d="M2552 4527 c-12 -13 -19 -27 -15 -30 3 -4 2 -7 -4 -7 -6 0 -13 -8
-17 -17 -3 -10 -19 -40 -36 -68 -17 -27 -35 -59 -40 -70 -6 -11 -24 -42 -40
-70 -17 -27 -35 -59 -41 -70 -5 -11 -20 -37 -32 -57 -95 -159 -117 -199 -117
-208 0 -5 -5 -10 -11 -10 -5 0 -7 -4 -4 -10 3 -5 1 -10 -4 -10 -6 0 -11 -7
-11 -15 0 -8 -4 -15 -8 -15 -4 0 -13 -12 -19 -27 -13 -31 -55 -105 -64 -113
-3 -3 -8 -13 -12 -22 -4 -12 -17 -18 -39 -19 -18 0 -240 -1 -493 -1 -253 0
-463 -2 -467 -4 -6 -4 67 -141 81 -154 3 -3 15 -23 27 -45 27 -52 48 -89 54
-95 3 -3 14 -22 24 -42 11 -21 24 -38 29 -38 6 0 7 -3 4 -7 -4 -3 -3 -11 2
-17 5 -6 18 -27 29 -46 11 -19 43 -75 72 -125 29 -49 62 -106 73 -125 11 -19
28 -48 38 -65 59 -97 61 -109 21 -157 -6 -8 -10 -17 -7 -20 3 -3 -1 -11 -10
-18 -8 -7 -15 -19 -15 -26 0 -8 -4 -14 -10 -14 -5 0 -10 -7 -10 -15 0 -8 -5
-15 -11 -15 -5 0 -8 -4 -5 -9 4 -5 3 -11 -1 -13 -5 -1 -15 -16 -24 -33 -9 -16
-36 -64 -60 -105 -24 -41 -42 -78 -41 -82 1 -5 -2 -8 -6 -8 -5 0 -19 -21 -32
-48 -12 -26 -29 -54 -35 -62 -7 -8 -25 -37 -41 -65 -15 -27 -32 -53 -38 -57
-6 -4 -8 -8 -4 -8 4 0 -20 -45 -52 -100 -33 -56 -54 -98 -48 -94 7 5 9 2 5 -8
-5 -13 1 -15 33 -13 22 2 44 6 50 10 5 3 10 3 10 -2 0 -10 71 -10 87 0 6 4 14
3 18 -2 4 -7 15 -7 30 -1 14 5 25 6 25 2 0 -11 84 -9 93 3 6 7 10 7 13 0 4
-11 106 -11 123 -1 6 4 11 3 11 -1 0 -12 83 -10 93 2 6 7 10 7 13 0 4 -11 106
-11 123 -1 6 4 11 4 11 -1 0 -10 71 -10 87 0 6 4 14 3 18 -2 4 -7 15 -7 30 -1
14 5 25 6 25 2 0 -4 20 -7 45 -6 50 2 51 1 95 -81 18 -33 39 -67 46 -76 8 -9
11 -19 7 -22 -3 -4 -1 -7 5 -7 7 0 12 -7 12 -15 0 -8 4 -15 9 -15 5 0 12 -11
15 -25 4 -14 11 -25 17 -25 6 0 8 -4 5 -9 -3 -5 1 -14 9 -21 8 -7 12 -16 9
-21 -3 -5 -1 -9 4 -9 5 0 20 -21 33 -47 13 -27 26 -50 29 -53 6 -6 14 -20 79
-135 25 -44 48 -82 51 -85 9 -7 24 -43 22 -52 -1 -5 3 -8 8 -8 6 0 10 -7 10
-15 0 -8 4 -15 10 -15 5 0 12 -11 16 -25 3 -14 10 -25 16 -25 5 0 6 -5 3 -10
-3 -5 -2 -10 3 -10 5 0 12 -9 15 -20 10 -37 49 -13 55 33 1 4 8 15 17 23 8 9
15 22 15 30 0 8 4 14 8 14 5 0 17 19 28 41 10 23 23 47 29 53 5 6 26 41 44 76
19 36 41 71 48 78 7 8 11 18 8 23 -4 5 -1 9 4 9 6 0 11 7 11 15 0 8 3 15 8 15
4 0 12 10 18 23 12 26 43 81 84 152 16 28 41 73 56 102 15 29 31 50 36 47 4
-3 5 2 2 10 -3 9 -1 16 5 16 6 0 11 6 11 14 0 7 7 19 15 26 8 7 12 16 9 21 -7
12 -60 10 508 11 l496 1 -11 21 c-7 12 -16 24 -22 28 -7 5 -7 8 0 8 6 0 6 3
-1 8 -6 4 -24 32 -40 62 -16 30 -31 57 -34 60 -3 3 -12 19 -20 35 -8 17 -17
32 -20 35 -5 5 -14 20 -58 99 -14 25 -29 48 -34 49 -4 2 -8 10 -8 18 0 8 -5
20 -10 27 -23 26 -78 126 -72 131 3 3 1 6 -5 6 -6 0 -16 14 -23 30 -7 17 -17
30 -22 30 -5 0 -7 4 -3 9 3 5 -1 16 -9 24 -8 8 -12 17 -9 21 4 3 0 6 -7 6 -7
0 -10 3 -7 6 4 4 -3 15 -15 25 -11 11 -18 19 -14 19 4 0 -2 14 -14 30 -12 17
-18 30 -15 30 4 0 -1 7 -9 16 -17 17 -22 54 -7 54 5 0 14 14 20 30 5 17 15 30
22 30 7 0 9 3 6 7 -4 3 0 17 8 30 9 13 12 23 8 23 -5 0 0 5 10 11 9 5 17 14
17 20 0 5 11 26 23 47 31 49 76 128 99 175 10 20 24 37 30 37 6 0 9 3 6 6 -4
3 9 33 28 66 19 33 34 64 34 69 0 5 4 9 10 9 5 0 12 11 16 25 3 14 9 25 13 25
3 0 15 19 26 43 11 23 22 44 26 47 3 3 16 25 29 50 14 25 31 53 39 63 8 9 11
20 8 24 -4 3 -111 6 -239 5 -332 -2 -688 -3 -724 -3 -26 1 -34 7 -50 41 -10
22 -22 40 -25 40 -3 0 -11 16 -19 35 -8 19 -18 35 -24 35 -5 0 -7 3 -3 6 3 4
-5 21 -18 39 -14 17 -25 37 -25 43 0 7 -5 12 -11 12 -5 0 -8 4 -5 8 3 5 -4 19
-15 30 -11 12 -17 22 -14 22 4 0 -3 13 -14 29 -12 16 -21 34 -21 40 0 6 -5 11
-11 11 -5 0 -7 5 -4 10 3 6 1 10 -4 10 -6 0 -11 7 -11 15 0 8 -4 15 -9 15 -5
0 -12 14 -16 30 -4 17 -10 28 -14 26 -4 -3 -13 11 -20 30 -7 18 -17 34 -22 34
-6 0 -8 4 -5 9 3 5 -1 14 -9 21 -8 7 -15 18 -15 25 0 8 -3 15 -7 17 -5 2 -17
21 -28 43 -11 22 -26 46 -33 53 -7 8 -10 17 -7 22 3 4 -2 11 -11 14 -8 3 -13
10 -9 15 3 5 0 13 -6 17 -6 3 -16 19 -23 35 l-12 29 -22 -23z m53 -657 c20
-33 35 -62 35 -66 -1 -4 3 -10 8 -13 5 -3 33 -49 62 -101 30 -52 57 -97 62
-98 4 -2 6 -8 2 -13 -3 -5 0 -9 5 -9 6 0 11 -4 11 -10 0 -5 25 -51 55 -102 30
-51 55 -88 55 -83 0 10 527 12 554 2 8 -3 17 -3 20 1 9 8 38 12 48 6 4 -3 -1
-19 -12 -37 -10 -18 -29 -51 -41 -74 -13 -24 -26 -43 -31 -43 -4 0 -7 -3 -6
-7 4 -12 -54 -113 -64 -113 -4 0 -7 -3 -5 -8 1 -4 -34 -70 -77 -146 -44 -76
-75 -141 -70 -144 12 -9 31 -40 45 -72 5 -13 13 -27 17 -30 4 -3 18 -26 31
-52 13 -27 29 -48 34 -48 6 0 8 -3 4 -6 -3 -4 9 -31 28 -60 19 -30 32 -54 29
-54 -3 0 6 -15 20 -33 15 -19 26 -37 26 -40 0 -4 18 -36 41 -73 22 -36 38 -68
36 -70 -2 -2 -148 -4 -325 -4 -179 -1 -320 -5 -317 -10 3 -4 -1 -14 -8 -22 -7
-7 -20 -26 -29 -43 -39 -75 -63 -120 -69 -125 -3 -3 -19 -30 -36 -60 -16 -30
-44 -79 -62 -108 -17 -29 -31 -57 -31 -62 0 -6 -5 -10 -11 -10 -6 0 -9 -7 -5
-15 3 -8 1 -15 -4 -15 -6 0 -18 -16 -27 -35 -15 -32 -42 -44 -35 -16 1 6 -2
11 -8 11 -5 0 -10 7 -10 15 0 8 -4 15 -9 15 -5 0 -11 8 -14 18 -4 9 -18 35
-32 57 -14 22 -28 48 -31 58 -4 9 -11 17 -16 17 -5 0 -6 5 -3 10 3 6 1 10 -4
10 -6 0 -11 7 -11 15 0 8 -5 15 -11 15 -5 0 -8 4 -5 9 3 5 -1 14 -9 21 -8 7
-15 19 -15 26 0 8 -4 14 -9 14 -5 0 -12 11 -15 25 -4 14 -11 25 -16 25 -6 0
-10 7 -10 15 0 9 -5 21 -11 28 -5 7 -25 37 -43 67 -18 30 -40 55 -48 55 -9 0
-20 3 -24 7 -3 4 -15 3 -25 -3 -11 -5 -19 -6 -19 -1 0 5 -7 9 -15 9 -8 0 -15
-3 -15 -7 0 -9 -32 -6 -48 4 -7 4 -12 2 -12 -4 0 -6 -5 -8 -12 -4 -16 10 -48
13 -48 4 0 -8 -37 -6 -46 3 -4 3 -15 2 -25 -4 -14 -7 -19 -6 -19 2 0 9 -3 9
-14 0 -10 -8 -16 -9 -21 -1 -4 7 -12 7 -26 0 -10 -6 -19 -7 -19 -2 0 5 -7 9
-15 9 -8 0 -15 -3 -15 -7 0 -9 -32 -6 -48 4 -7 4 -12 2 -12 -4 0 -6 -5 -8 -12
-4 -16 10 -48 13 -48 4 0 -8 -37 -6 -46 3 -4 4 -13 2 -20 -4 -9 -7 -12 -6 -10
3 4 22 39 88 47 88 4 0 10 11 13 24 3 14 13 31 21 39 8 8 16 21 17 28 2 8 9
20 16 27 7 8 10 17 7 22 -3 4 2 11 11 14 8 3 12 10 9 16 -3 5 -1 10 4 10 6 0
11 7 11 15 0 8 4 15 9 15 5 0 11 8 14 18 4 9 22 44 42 77 19 33 40 72 46 88 6
15 14 27 19 27 4 0 10 10 13 21 4 14 -7 43 -34 86 -21 36 -39 69 -39 74 0 5
-5 9 -12 9 -6 0 -9 3 -5 6 3 4 -5 22 -20 40 -14 19 -21 34 -17 34 5 0 5 4 -1
8 -12 8 -25 30 -62 100 -15 28 -30 52 -33 52 -4 0 -12 16 -20 35 -8 19 -17 35
-20 35 -3 0 -12 16 -20 35 -8 19 -17 35 -22 35 -4 0 -8 4 -8 9 0 4 102 9 228
9 125 0 268 1 319 1 l92 1 63 108 c35 59 62 110 60 115 -1 4 2 7 6 7 5 0 17
18 27 40 10 22 22 40 27 40 4 0 8 9 8 20 0 11 4 20 8 20 10 0 37 50 34 63 -1
4 1 7 6 7 4 0 23 29 41 65 19 36 35 65 37 65 1 0 19 -27 39 -60z"/>
<path d="M2528 3514 c-37 -40 -88 -127 -88 -149 0 -8 -4 -15 -8 -15 -4 0 -8
-8 -9 -17 -1 -10 -4 -37 -7 -61 -5 -36 -2 -49 19 -76 14 -18 22 -36 18 -39 -3
-4 -1 -7 5 -7 7 0 12 -9 12 -19 0 -11 5 -23 10 -26 6 -3 10 -22 10 -41 0 -19
4 -34 8 -34 5 0 9 -17 9 -37 1 -21 4 -49 7 -63 3 -14 7 -35 10 -47 3 -13 1
-23 -4 -23 -6 0 -6 -9 -1 -22 4 -13 6 -29 4 -35 -5 -13 -1 -14 51 -17 34 -2
34 -1 40 94 4 66 9 98 30 196 6 31 52 118 68 132 9 7 13 27 12 54 -1 24 -3 43
-4 43 -1 0 -4 14 -6 30 -3 17 -9 32 -15 33 -5 2 -9 10 -9 19 0 27 -99 163
-119 163 -6 0 -25 -16 -43 -36z"/>
<path d="M2148 3156 c-60 -25 -98 -86 -98 -158 0 -35 2 -38 15 -24 9 8 22 13
30 10 8 -4 15 -2 15 4 0 5 16 9 35 7 19 -1 35 1 35 5 0 4 10 6 23 4 12 -1 22
-3 22 -4 0 -1 14 -3 32 -5 63 -7 120 -58 138 -125 1 -3 4 -12 8 -20 3 -8 7
-24 9 -35 4 -24 17 -35 34 -28 15 6 16 123 1 123 -5 0 -6 4 -3 8 7 12 -15 92
-26 92 -5 0 -7 4 -4 9 4 5 -5 23 -19 39 -14 16 -25 34 -25 38 0 15 -93 62
-117 59 -13 -1 -23 2 -23 6 0 11 -50 8 -82 -5z"/>
<path d="M2894 3158 c-3 -5 -14 -6 -25 -3 -11 4 -19 2 -19 -4 0 -6 -6 -11 -13
-11 -7 0 -23 -9 -34 -19 -12 -11 -24 -17 -27 -14 -3 4 -6 1 -6 -5 0 -6 -6 -17
-12 -24 -21 -21 -48 -75 -48 -92 0 -9 -4 -16 -8 -16 -4 0 -8 -8 -8 -17 -1 -25
-12 -71 -18 -82 -4 -5 -2 -12 4 -16 6 -4 7 -13 1 -23 -12 -23 4 -51 27 -48 10
2 17 11 16 25 -1 11 3 21 8 21 6 0 8 7 4 15 -3 8 0 15 6 15 6 0 9 3 5 6 -3 4
0 18 7 33 20 37 52 72 60 64 3 -3 6 -1 6 5 0 13 66 36 85 28 8 -3 15 -2 15 3
0 4 7 8 15 8 8 0 15 -3 15 -7 0 -4 11 -6 25 -4 25 2 58 -5 99 -21 17 -7 18 -4
13 36 -2 24 -9 55 -15 69 -11 28 -57 71 -81 75 -9 2 -18 5 -21 6 -14 6 -72 4
-76 -3z"/>
<path d="M2435 2720 c-3 -6 -10 -8 -15 -5 -9 6 -24 -13 -25 -30 0 -5 7 -17 16
-25 14 -13 43 -16 146 -15 155 2 183 8 183 41 0 25 -3 26 -67 28 -17 0 -30 3
-28 6 2 3 -36 6 -86 6 -49 0 -89 -5 -89 -9 0 -5 -6 -4 -14 2 -10 8 -16 9 -21
1z"/>
<path d="M2575 2580 c-4 -6 -14 -9 -23 -8 -25 4 -48 -78 -46 -163 4 -120 64
-176 108 -100 34 58 22 227 -20 268 -8 9 -15 10 -19 3z"/>
<path d="M2416 2572 c-3 -3 -6 -15 -6 -27 0 -21 -32 -64 -50 -66 -44 -6 -78
-3 -97 9 -14 9 -23 10 -28 3 -3 -6 -1 -11 5 -11 6 0 9 -4 6 -8 -8 -13 31 -90
51 -101 25 -13 76 -11 95 3 36 27 56 72 61 139 1 15 5 27 8 27 7 0 7 30 0 31
-3 0 -14 2 -23 4 -9 2 -19 0 -22 -3z"/>
<path d="M2679 2560 c-1 -15 -1 -18 7 -55 3 -11 7 -30 10 -43 18 -87 110 -133
160 -79 43 47 59 140 18 106 -44 -36 -117 -12 -141 48 -18 42 -52 57 -54 23z"/>
<path d="M4105 4410 c-4 -6 -11 -7 -17 -4 -6 4 -8 2 -4 -4 3 -6 2 -13 -3 -17
-15 -9 5 -56 39 -92 17 -18 30 -37 30 -42 0 -6 5 -11 10 -11 7 0 7 -6 1 -19
-6 -10 -7 -21 -4 -25 3 -3 1 -6 -6 -6 -7 0 4 -18 25 -39 22 -22 41 -38 43 -36
2 2 12 -5 24 -15 19 -19 20 -21 3 -39 -16 -18 -16 -21 -2 -43 8 -12 36 -40 61
-62 34 -27 44 -41 36 -49 -18 -18 -12 -55 11 -71 12 -8 25 -13 30 -10 4 3 8 0
8 -5 0 -6 7 -11 15 -11 8 0 15 -3 15 -7 0 -5 10 -13 23 -18 12 -6 45 -24 73
-40 47 -26 53 -27 67 -13 9 9 17 26 19 39 2 13 7 30 11 37 5 6 5 17 2 22 -3 6
-3 10 2 10 4 0 9 21 11 47 1 25 7 52 13 60 9 9 8 13 0 13 -7 0 -10 4 -6 9 6
10 -28 33 -53 37 -20 4 -21 6 -39 70 -10 33 -22 64 -28 71 -15 15 -47 20 -63
10 -8 -6 -21 11 -42 56 -16 35 -37 70 -46 77 -18 16 -53 20 -60 8 -3 -4 -22 9
-42 30 -65 67 -142 107 -157 82z"/>
<path d="M3612 4360 c-14 -11 -13 -50 4 -75 9 -14 19 -24 21 -21 9 9 53 -47
55 -71 2 -16 11 -29 28 -37 14 -6 27 -13 30 -16 3 -3 14 -7 25 -8 28 -5 31
-10 18 -31 -10 -15 -8 -22 11 -38 12 -11 27 -18 33 -16 6 2 14 -1 18 -6 3 -6
14 -11 24 -11 12 0 20 -9 23 -25 3 -14 1 -25 -6 -25 -6 0 0 -7 12 -16 13 -9
26 -13 29 -10 3 3 12 1 19 -5 8 -7 14 -7 19 1 4 6 12 7 23 1 9 -5 43 -11 75
-14 32 -2 60 -7 64 -10 13 -14 35 25 29 51 -3 15 -8 41 -11 57 -8 59 -16 90
-27 102 -6 7 -7 13 -3 13 4 0 2 7 -6 16 -8 10 -22 14 -38 11 -31 -6 -51 7 -76
50 -23 39 -68 59 -86 37 -10 -13 -19 -8 -56 31 -43 43 -51 47 -98 34 -5 -1
-31 7 -57 19 -44 20 -80 24 -96 12z"/>
<path d="M712 4301 c-23 -22 -42 -37 -42 -33 0 13 -112 -154 -128 -190 -9 -21
-20 -38 -24 -38 -4 0 -5 -7 -2 -15 4 -8 1 -15 -6 -15 -7 0 -10 -6 -7 -14 3 -8
2 -16 -3 -18 -5 -2 -11 -17 -13 -33 -2 -17 -7 -36 -11 -43 -4 -7 -4 -16 -1
-22 3 -5 2 -10 -4 -10 -5 0 -8 -11 -6 -25 1 -14 -2 -28 -6 -31 -5 -3 -5 -14 1
-24 7 -13 7 -21 0 -25 -6 -4 -7 -11 -3 -18 4 -6 8 -23 10 -37 12 -92 35 -118
68 -74 8 10 15 16 15 11 0 -4 15 8 33 27 48 50 68 76 59 76 -4 0 1 5 11 11 9
6 15 14 12 20 -4 5 -2 9 3 9 8 0 51 85 58 113 1 4 3 10 4 15 1 4 2 10 1 15 0
4 3 7 9 7 5 0 7 7 4 15 -4 8 -2 15 3 15 7 0 13 22 16 68 0 6 3 12 6 12 3 0 7
19 8 43 1 23 4 71 6 107 2 36 0 75 -4 88 -5 14 -5 22 2 22 6 0 4 7 -5 15 -8 8
-16 15 -18 15 -2 0 -23 -18 -46 -39z"/>
<path d="M1155 4261 c-33 -10 -76 -26 -95 -36 -56 -29 -160 -114 -160 -131 0
-3 -11 -20 -25 -36 -14 -16 -23 -34 -19 -39 3 -5 0 -9 -5 -9 -6 0 -11 -8 -11
-18 0 -10 -3 -22 -7 -26 -9 -9 -16 -104 -9 -123 5 -11 10 -12 27 -2 12 6 19 7
16 2 -4 -5 13 -4 36 2 121 33 218 87 292 161 40 40 111 157 107 177 -1 4 3 7
8 7 6 0 9 3 9 8 -1 4 0 9 1 12 1 3 3 12 5 20 1 8 4 22 6 30 6 22 -100 22 -176
1z"/>
<path d="M4130 3843 c-8 -4 -20 -11 -26 -17 -14 -15 -24 -56 -13 -56 5 0 9 -9
9 -20 0 -11 4 -20 8 -20 20 0 29 -45 15 -67 -13 -19 -12 -24 4 -43 10 -12 31
-28 46 -37 27 -13 28 -16 13 -32 -20 -22 -21 -61 -1 -61 8 0 15 -4 15 -8 0 -4
13 -15 28 -24 26 -15 40 -48 21 -48 -11 0 -5 -26 10 -44 7 -9 22 -16 32 -16
11 0 19 -4 19 -10 0 -5 8 -10 18 -10 10 0 28 -8 41 -17 14 -9 21 -12 18 -5 -4
6 14 -1 39 -14 56 -30 88 -28 92 4 2 12 8 22 13 22 6 0 8 4 5 9 -4 5 -2 21 4
35 10 28 18 60 26 112 6 35 -10 53 -50 56 -24 2 -31 10 -27 32 1 5 -1 16 -5
25 -4 9 -9 24 -11 34 -6 32 -30 48 -63 42 -17 -3 -31 -1 -31 5 -1 5 -2 14 -3
19 0 5 -4 13 -8 17 -5 4 -8 14 -8 21 0 8 -9 23 -20 35 -17 18 -23 20 -45 10
-19 -9 -26 -8 -32 1 -15 23 -87 77 -103 76 -8 0 -22 -3 -30 -6z"/>
<path d="M915 3761 c-6 -6 -25 -13 -44 -16 -19 -3 -39 -9 -45 -13 -6 -4 -13
-7 -16 -7 -15 -1 -70 -31 -70 -38 0 -5 -5 -5 -10 -2 -6 3 -13 -1 -16 -9 -3 -9
-11 -16 -17 -16 -17 0 -130 -127 -133 -149 0 -3 -6 -19 -12 -34 -7 -16 -12
-35 -12 -43 0 -8 -4 -14 -9 -14 -4 0 -7 -16 -6 -36 1 -19 -2 -37 -7 -40 -5 -3
-6 -8 -4 -12 2 -4 7 -25 11 -47 12 -74 29 -114 47 -111 25 3 133 59 141 73 4
7 14 13 20 13 21 0 179 159 159 160 -4 0 1 7 11 14 10 8 18 17 18 20 -3 22 1
36 12 48 6 7 13 24 15 38 1 14 3 31 4 38 1 6 6 12 11 12 5 0 5 5 -1 13 -7 8
-7 18 -2 27 5 9 5 19 -1 26 -7 8 -6 14 1 19 6 3 8 11 5 16 -4 5 -8 19 -10 31
-6 29 -28 51 -40 39z"/>
<path d="M4711 3691 c-10 -10 -22 -16 -26 -13 -4 4 -6 -14 -4 -40 3 -27 1 -48
-3 -48 -4 0 -1 -12 7 -27 13 -24 12 -28 -7 -45 -12 -10 -24 -18 -28 -18 -15 0
1 -66 26 -103 25 -38 25 -39 5 -44 -21 -5 -58 -53 -41 -53 5 0 9 -3 8 -7 -3
-13 14 -56 28 -71 15 -14 20 -46 7 -39 -13 7 -38 -27 -37 -49 1 -12 16 -38 35
-57 19 -19 58 -60 88 -92 50 -53 55 -56 68 -39 7 10 13 15 13 11 0 -5 6 -2 14
5 8 7 13 15 13 18 -3 9 30 50 35 44 4 -3 9 4 13 15 3 12 11 21 16 21 5 0 9 7
9 15 0 7 6 18 14 22 7 4 21 23 30 41 15 29 15 35 1 54 -8 13 -15 18 -15 13 0
-5 -6 0 -14 10 -11 15 -11 25 0 63 21 68 18 89 -13 105 -16 8 -34 12 -41 9
-11 -3 -12 0 -4 14 5 11 8 27 7 37 -2 9 1 17 6 17 6 0 5 8 -1 20 -8 14 -8 20
0 20 7 0 4 12 -6 29 -10 16 -23 27 -30 24 -16 -6 -44 20 -49 46 -15 80 -84
132 -124 92z"/>
<path d="M319 3642 c-28 -34 -69 -102 -62 -102 5 0 2 -4 -5 -9 -7 -4 -15 -17
-17 -27 -2 -10 -4 -20 -5 -21 -2 -2 -3 -6 -4 -10 -1 -5 -5 -17 -9 -28 -16 -48
-20 -88 -23 -207 -2 -75 0 -128 6 -128 5 0 7 -8 5 -18 -1 -9 4 -35 12 -57 7
-22 15 -44 17 -50 11 -48 72 -135 93 -135 4 0 4 3 0 6 -3 4 2 14 13 23 34 29
97 176 98 231 1 8 3 42 5 75 2 33 1 69 -4 81 -4 11 -4 27 1 34 5 7 4 24 -1 37
-5 13 -11 39 -14 56 -8 59 -44 179 -56 192 -5 5 -9 17 -9 27 0 10 -5 18 -11
18 -5 0 -8 4 -4 9 10 18 -11 20 -26 3z"/>
<path d="M4388 3204 c-4 -3 -12 -7 -20 -8 -27 -6 -48 -18 -43 -26 3 -5 1 -11
-5 -15 -6 -3 -7 -18 -4 -33 16 -74 17 -82 0 -82 -9 0 -16 -3 -17 -7 0 -5 -2
-17 -4 -27 -2 -11 10 -33 30 -55 21 -22 30 -37 22 -40 -6 -2 -20 -11 -30 -19
-16 -14 -16 -17 0 -41 9 -14 25 -34 35 -45 22 -24 22 -33 3 -52 -8 -9 -11 -22
-7 -33 7 -18 108 -102 155 -128 12 -7 18 -13 12 -13 -5 0 0 -6 11 -14 28 -20
54 -14 70 15 7 13 14 20 14 14 0 -11 26 30 36 58 3 9 9 17 13 17 4 0 17 18 30
40 25 45 21 80 -10 80 -23 0 -40 36 -29 65 19 54 -6 104 -50 97 -25 -4 -26 -3
-25 58 0 62 -11 81 -45 79 -30 -2 -40 1 -40 14 0 7 -9 23 -20 35 -11 12 -20
25 -20 31 0 8 -23 21 -36 20 -4 0 -10 4 -14 10 -3 6 -9 9 -12 5z"/>
<path d="M657 3105 c-57 -29 -66 -36 -128 -98 -51 -51 -101 -142 -103 -188 0
-15 -4 -25 -8 -23 -12 8 -9 -129 3 -167 15 -47 42 -102 54 -111 6 -4 6 -8 1
-8 -5 0 4 -12 19 -26 l28 -25 35 33 c63 59 91 88 86 88 -3 0 7 12 21 28 14 15
38 52 53 82 15 30 32 58 37 62 6 4 7 8 3 8 -4 0 -4 10 1 23 30 77 30 206 0
259 -5 10 -9 23 -9 30 -1 12 -34 58 -42 58 -1 0 -24 -12 -51 -25z"/>
<path d="M4928 2888 c-23 -8 -60 -67 -64 -102 -4 -35 -18 -56 -39 -56 -27 0
-52 -28 -48 -55 2 -11 4 -36 5 -55 3 -31 0 -35 -19 -34 -13 0 -23 -3 -23 -8 0
-4 -7 -8 -15 -8 -15 0 -19 -21 -15 -70 7 -79 7 -79 -18 -82 -14 -2 -31 -13
-39 -24 -12 -19 -12 -24 1 -37 8 -8 12 -17 9 -20 -3 -4 3 -23 13 -44 10 -21
19 -41 20 -45 1 -5 3 -10 4 -13 1 -3 4 -9 5 -15 1 -5 4 -13 5 -17 1 -5 2 -12
1 -16 -2 -11 25 -37 38 -37 14 0 90 40 97 51 3 5 10 7 15 4 5 -4 9 -1 9 4 0 6
7 11 15 11 8 0 15 3 15 8 0 4 18 16 41 26 54 27 61 41 46 99 -6 23 -2 35 26
70 44 53 52 80 33 100 -9 8 -21 17 -28 19 -14 5 24 77 48 91 23 13 17 52 -11
67 -23 12 -27 18 -24 36 0 4 -5 11 -13 15 -7 5 -8 9 -3 9 14 0 12 80 -3 106
-13 25 -47 34 -84 22z"/>
<path d="M147 2853 c-4 -8 -18 -57 -22 -78 -1 -5 -3 -12 -4 -15 -6 -12 -10
-49 -12 -95 -1 -27 -4 -54 -8 -60 -8 -16 -8 -45 1 -39 12 8 10 -10 -4 -24 -8
-8 -8 -12 -1 -12 6 0 10 -15 9 -35 -1 -19 2 -35 7 -35 4 0 6 -4 2 -9 -5 -10
15 -101 25 -111 3 -3 6 -12 8 -20 5 -22 47 -92 70 -115 34 -35 82 -75 82 -69
0 4 8 1 18 -8 32 -27 100 -50 88 -29 -4 5 -1 11 6 13 11 4 13 18 20 108 2 19
8 38 13 42 6 5 6 8 -1 8 -6 0 -12 12 -13 28 -4 61 -8 98 -14 112 -3 8 -11 36
-17 63 -7 26 -17 47 -22 47 -5 0 -6 5 -3 10 4 6 0 22 -9 35 -9 13 -16 29 -16
34 0 15 -99 175 -118 189 -9 6 -13 12 -9 12 4 0 -5 14 -20 30 -26 29 -47 38
-56 23z"/>
<path d="M4351 2509 c-13 -11 -22 -28 -21 -41 5 -54 0 -78 -16 -78 -20 0 -43
-24 -40 -41 6 -31 25 -67 37 -71 8 -3 -1 -11 -19 -19 -18 -7 -32 -16 -33 -19
0 -3 -2 -13 -4 -22 -2 -10 1 -20 6 -24 5 -3 9 -14 9 -25 0 -10 5 -19 10 -19
18 0 11 -29 -10 -42 -20 -13 -28 -58 -10 -58 6 0 9 -3 8 -7 -2 -5 21 -43 50
-85 28 -42 52 -81 52 -86 0 -24 39 -18 69 10 17 16 31 26 31 23 0 -3 10 3 23
15 12 11 37 33 56 50 19 16 36 39 38 50 3 22 -20 54 -31 43 -3 -4 -6 1 -6 10
0 16 18 56 31 67 3 3 5 20 5 39 -1 33 -10 43 -51 56 -13 4 -15 9 -8 13 6 4 18
26 26 48 12 36 12 44 0 60 -8 11 -19 18 -24 16 -6 -1 -17 4 -25 13 -9 8 -12
15 -8 15 3 0 1 6 -5 13 -6 8 -8 17 -4 20 3 4 1 12 -5 19 -6 7 -11 18 -12 23
-6 25 -13 35 -33 41 -39 13 -63 11 -86 -7z"/>
<path d="M665 2457 c-26 -14 -85 -75 -85 -87 0 -6 -4 -10 -10 -10 -5 0 -12
-11 -16 -25 -3 -14 -10 -25 -15 -25 -5 0 -9 -7 -9 -15 0 -8 -5 -15 -12 -15 -9
0 -9 -3 0 -12 8 -8 8 -15 1 -24 -11 -13 -21 -69 -21 -114 -1 -21 3 -52 15
-125 1 -5 6 -13 10 -16 4 -3 9 -16 10 -27 1 -12 5 -22 9 -22 4 0 8 -7 8 -15 0
-8 5 -15 10 -15 6 0 10 -6 10 -12 0 -18 89 -108 106 -108 8 0 14 -4 14 -10 0
-5 7 -7 15 -4 8 4 12 10 9 15 -3 5 -1 9 5 9 6 0 7 7 4 17 -4 11 -3 14 5 9 7
-4 12 -1 12 8 0 8 5 27 12 43 6 15 12 30 13 33 0 3 7 22 14 42 7 21 10 42 6
48 -3 5 -1 10 5 10 5 0 10 12 11 28 0 15 1 72 2 127 1 59 -3 110 -9 125 -7 14
-19 41 -28 61 -10 20 -25 45 -34 55 -10 11 -24 29 -33 41 -12 17 -18 19 -34
10z"/>
<path d="M4792 2035 c-13 -7 -37 -32 -55 -56 -38 -54 -43 -57 -70 -52 -27 4
-47 -8 -52 -33 -2 -10 -4 -19 -5 -19 -1 0 -3 -7 -5 -16 -10 -52 -16 -59 -45
-54 -18 3 -33 0 -42 -10 -30 -33 -37 -43 -31 -49 3 -3 2 -13 -2 -23 -9 -20
-12 -29 -14 -42 0 -5 -12 -8 -26 -8 -28 0 -58 -21 -49 -34 3 -5 1 -9 -4 -9 -4
0 -8 -21 -9 -47 0 -27 -1 -74 -3 -106 -2 -32 1 -62 7 -68 6 -6 26 -4 56 5 26
8 50 15 52 15 3 1 6 2 8 2 1 1 13 2 27 3 14 1 30 4 35 8 6 3 28 11 51 17 48
13 75 50 54 76 -7 8 -9 15 -4 15 5 0 32 18 61 39 28 22 55 36 59 33 4 -4 4 -1
0 6 -4 6 -3 12 2 12 14 0 7 41 -9 51 -15 10 -5 22 65 76 31 25 39 69 15 83
-10 7 -8 19 11 60 30 65 32 95 8 117 -24 22 -56 25 -86 8z"/>
<path d="M251 2002 c1 -9 0 -20 -1 -24 -2 -10 -2 -77 0 -80 1 -2 3 -16 5 -33
1 -16 3 -30 4 -30 2 0 4 -9 6 -20 6 -30 66 -145 76 -145 5 0 9 -5 9 -12 0 -6
11 -23 24 -37 101 -107 126 -131 163 -159 47 -37 113 -68 161 -77 l33 -5 -4
47 c-5 50 -38 156 -65 208 -9 17 -15 33 -14 38 1 4 -2 7 -8 7 -5 0 -10 7 -10
15 0 8 -4 15 -8 15 -4 0 -15 12 -24 28 -9 15 -25 37 -35 50 -49 64 -203 192
-229 192 -7 0 -19 6 -26 13 -7 7 -23 16 -36 19 -18 5 -23 2 -21 -10z"/>
<path d="M4178 1850 c-9 -10 -22 -37 -28 -59 -9 -35 -13 -39 -38 -35 -21 3
-28 0 -30 -13 -1 -10 -3 -27 -5 -38 -3 -11 0 -30 4 -42 5 -13 5 -23 1 -24 -22
-2 -56 -10 -60 -14 -3 -2 -5 -31 -6 -65 -1 -41 -5 -60 -13 -60 -7 0 -22 -9
-33 -20 -16 -16 -18 -25 -10 -39 5 -11 11 -40 12 -65 2 -25 6 -46 9 -46 4 0 6
-16 4 -34 -1 -19 1 -39 4 -44 8 -11 49 -22 53 -13 4 8 74 43 116 56 12 4 22
11 22 16 0 5 3 8 8 7 4 -1 16 4 28 11 18 12 20 18 11 47 -9 28 -7 35 17 59 45
45 57 70 48 96 -5 13 -12 23 -16 22 -3 -2 -6 -1 -6 2 0 3 0 8 0 13 0 4 11 20
25 35 14 15 23 27 19 27 -3 0 -1 6 5 14 14 16 4 46 -15 46 -17 0 -19 17 -10
97 7 66 -76 111 -116 63z"/>
<path d="M803 1804 c3 -4 0 -19 -8 -34 -19 -37 -25 -74 -24 -145 1 -89 2 -105
12 -105 4 0 6 -4 3 -8 -3 -5 1 -21 9 -35 8 -15 15 -31 16 -35 6 -23 58 -93 98
-132 46 -46 151 -116 151 -102 0 4 4 2 8 -4 4 -6 19 -14 34 -18 30 -7 29 -13
13 104 -10 70 -11 75 -16 85 -3 6 -12 36 -19 68 -7 31 -18 57 -23 57 -5 0 -7
9 -4 20 3 12 -1 24 -11 30 -10 5 -13 10 -8 10 5 0 4 6 -2 13 -6 6 -11 17 -12
22 0 6 -10 26 -22 45 -11 19 -19 35 -17 35 8 0 -89 94 -118 113 -27 19 -76 32
-60 16z"/>
<path d="M4384 1299 c-27 -17 -52 -36 -55 -41 -7 -10 -31 -7 -40 6 -4 4 -16 3
-28 -4 -30 -15 -61 -47 -54 -54 3 -3 -2 -8 -11 -12 -9 -3 -16 -12 -16 -20 0
-8 -7 -14 -15 -14 -8 0 -15 5 -15 10 0 6 -9 10 -20 10 -21 0 -48 -22 -87 -73
-12 -16 -32 -28 -45 -29 -42 0 -69 -8 -63 -18 3 -6 2 -10 -4 -10 -6 0 -13 -11
-17 -25 -3 -14 -9 -25 -13 -25 -3 0 -12 -13 -19 -29 -7 -16 -22 -39 -32 -51
-20 -24 -28 -66 -10 -55 6 3 10 3 10 -2 0 -4 27 -8 60 -8 33 0 60 4 60 8 0 4
7 4 17 -1 9 -5 28 -7 42 -3 14 4 36 6 48 5 16 -1 26 8 37 30 11 24 26 35 63
46 26 8 54 15 61 16 24 4 52 37 47 53 -7 24 5 35 53 51 57 18 84 43 80 72 -2
17 10 35 44 69 26 25 45 49 41 52 -3 4 -2 7 4 7 12 0 6 38 -10 58 -16 21 -61
13 -113 -19z"/>
<path d="M649 1297 c-5 -26 -4 -34 5 -52 6 -11 11 -22 11 -25 4 -31 138 -172
200 -210 22 -13 42 -27 45 -31 16 -21 199 -100 270 -115 19 -4 42 -9 50 -12
29 -7 120 -10 124 -3 5 8 -133 151 -194 200 -23 19 -48 41 -56 48 -7 7 -16 13
-19 13 -4 0 -24 13 -44 29 -45 36 -189 111 -213 111 -9 0 -20 5 -23 10 -3 6
-17 10 -30 10 -13 0 -26 4 -30 9 -3 6 -14 8 -25 6 -11 -2 -20 1 -20 7 0 7 -4
7 -13 -1 -10 -8 -17 -7 -25 1 -7 7 -13 9 -13 5z"/>
<path d="M3825 1269 c-16 -10 -26 -19 -22 -19 4 0 -4 -11 -18 -24 -18 -17 -34
-23 -53 -20 -30 5 -54 -16 -82 -71 -19 -38 -30 -46 -50 -35 -9 5 -25 3 -40 -6
-14 -7 -22 -13 -17 -14 4 0 -1 -8 -10 -19 -10 -10 -29 -33 -42 -50 -17 -23
-29 -30 -43 -25 -21 6 -68 -29 -68 -52 0 -6 -7 -15 -16 -18 -8 -3 -12 -11 -8
-17 3 -6 2 -14 -3 -18 -5 -3 -21 -27 -36 -53 -15 -27 -31 -48 -35 -48 -13 0
-12 -44 1 -52 6 -4 18 -1 26 5 8 7 16 10 18 8 3 -3 36 2 91 14 12 3 32 7 45
10 12 2 36 8 52 11 28 6 79 34 62 34 -4 0 -3 9 3 19 8 16 101 58 120 54 3 0
15 10 28 23 12 13 19 24 14 24 -4 0 -8 9 -9 19 -1 14 12 26 44 41 63 29 97 65
84 88 -7 13 -3 25 17 52 14 19 29 37 32 40 8 6 22 39 26 60 2 8 -4 25 -12 38
-18 27 -57 28 -99 1z"/>
<path d="M1229 1207 c-1 -7 -1 -16 0 -20 5 -30 10 -46 21 -72 7 -16 13 -33 12
-37 -1 -5 2 -8 7 -8 5 0 12 -8 15 -18 4 -10 19 -33 34 -50 15 -17 33 -40 41
-51 8 -11 18 -18 22 -15 4 2 16 -7 27 -21 11 -14 23 -25 27 -25 4 0 20 -9 36
-21 16 -11 29 -18 29 -14 0 3 9 -3 21 -14 12 -11 27 -17 35 -14 8 3 14 1 14
-5 0 -9 47 -27 63 -24 4 1 7 -3 7 -8 0 -6 6 -10 13 -9 6 1 21 -1 32 -5 73 -28
123 -39 137 -30 5 4 6 9 2 13 -5 3 -18 24 -30 46 -27 52 -48 89 -54 95 -3 3
-18 24 -33 46 -28 42 -115 128 -152 151 -70 44 -171 88 -221 96 -10 1 -25 6
-31 10 -7 5 -13 6 -13 3 0 -2 -13 -1 -30 4 -21 6 -30 5 -31 -3z"/>
<path d="M2237 1039 c-9 -6 -22 -7 -27 -4 -6 3 -10 2 -10 -3 0 -6 -10 -12 -22
-16 -22 -5 -127 -86 -113 -86 4 0 2 -7 -5 -15 -7 -8 -9 -15 -5 -15 4 0 2 -7
-5 -15 -7 -8 -9 -15 -5 -15 4 0 3 -6 -2 -12 -8 -10 -11 -103 -3 -103 1 0 3 -7
5 -16 4 -24 36 -69 48 -69 6 0 8 -3 4 -6 -6 -7 42 -43 91 -68 22 -11 31 -12
45 -2 9 7 14 16 10 19 -3 4 -1 7 6 7 6 0 21 9 33 20 12 10 25 17 30 14 4 -3 8
-1 8 5 0 6 6 8 14 5 8 -3 17 0 21 5 3 6 11 9 16 6 23 -15 28 8 7 29 -39 38
-67 74 -61 80 4 3 2 6 -4 6 -10 0 -24 29 -27 55 -1 6 -5 16 -9 22 -11 17 -12
147 -2 164 5 7 4 10 -3 5 -5 -3 -12 -2 -14 3 -2 6 -10 6 -21 0z"/>
<path d="M2356 1022 c-9 -15 0 -140 12 -154 6 -8 9 -17 6 -21 -9 -9 73 -114
93 -119 21 -5 86 -2 123 5 52 11 184 68 200 87 3 3 25 14 50 24 25 10 60 24
78 32 20 9 32 10 32 3 0 -6 5 -7 13 -2 16 10 37 13 37 4 0 -4 8 -7 19 -7 18 0
18 2 3 26 -36 56 -105 102 -159 105 -17 2 -36 6 -42 9 -6 4 -11 3 -11 -1 0 -5
-17 -9 -37 -9 -45 0 -97 -9 -113 -19 -16 -10 -170 -13 -170 -3 0 4 -8 8 -18 8
-10 0 -35 9 -57 20 -43 22 -51 24 -59 12z"/>
<path d="M2984 821 c-3 -3 -9 -6 -12 -6 -20 -1 -112 -40 -112 -48 0 -4 -4 -6
-9 -3 -12 7 -44 -30 -46 -53 0 -10 -9 -26 -18 -36 -14 -13 -15 -20 -6 -31 6
-8 15 -11 20 -8 5 3 9 0 9 -6 0 -6 5 -8 10 -5 6 3 10 1 10 -4 0 -6 5 -11 10
-11 6 0 22 -11 36 -24 22 -19 30 -21 49 -12 13 6 21 14 19 18 -3 5 1 8 8 8 11
0 49 33 91 80 24 27 46 84 45 116 -1 31 -2 32 -49 31 -27 0 -51 -3 -55 -6z"/>
<path d="M1260 752 c0 -4 -12 -9 -27 -9 -51 -3 -73 -7 -73 -16 0 -4 -4 -6 -10
-2 -13 8 -98 -38 -137 -74 -39 -35 -95 -120 -87 -132 3 -5 0 -9 -6 -9 -7 0
-10 -7 -6 -15 3 -8 2 -15 -3 -15 -4 0 -8 -6 -8 -12 0 -8 13 -13 29 -13 15 0
28 4 28 8 0 5 5 5 11 1 7 -4 28 -8 48 -10 48 -4 69 -9 77 -17 4 -4 18 -7 31
-7 13 0 23 -5 23 -12 0 -6 3 -9 6 -5 4 3 21 0 39 -8 19 -7 36 -11 39 -7 3 3 6
0 6 -6 0 -7 3 -11 8 -10 4 1 17 -3 28 -10 12 -6 24 -8 28 -5 3 3 6 1 6 -5 0
-7 3 -11 8 -10 4 1 43 -15 87 -36 134 -63 308 -124 367 -129 10 -1 18 -4 18
-7 0 -3 10 -6 23 -6 12 -1 51 -4 87 -8 36 -4 76 -8 90 -9 14 -1 35 1 48 5 15
5 21 4 17 -2 -4 -6 2 -7 17 -2 13 4 36 7 51 6 22 -1 27 2 21 15 -3 9 -9 25
-12 36 -2 11 -8 25 -13 30 -11 15 -21 125 -11 125 5 0 8 11 7 24 -2 13 8 48
21 77 14 28 23 53 22 54 -4 3 -144 45 -167 50 -9 2 -35 10 -58 19 -24 8 -43
13 -43 9 0 -3 -6 -1 -12 5 -14 11 -17 12 -49 12 -11 0 -17 4 -14 10 3 6 -1 7
-10 4 -8 -4 -22 -1 -30 6 -8 7 -22 10 -30 6 -8 -3 -15 -1 -15 4 0 6 -3 9 -7 9
-5 -1 -11 0 -15 1 -14 4 -22 6 -60 14 -21 5 -38 12 -38 18 0 5 -4 7 -9 4 -5
-3 -36 3 -70 15 -34 11 -66 17 -71 14 -6 -4 -10 -2 -10 3 0 5 -6 9 -12 9 -46
3 -164 16 -170 20 -5 2 -8 0 -8 -5z"/>
<path d="M3686 719 c2 -4 -6 -7 -19 -8 -33 -1 -102 -9 -102 -12 0 -1 -11 -3
-25 -4 -14 -1 -32 -5 -40 -8 -8 -4 -27 -9 -42 -12 -67 -12 -82 -17 -100 -26
-10 -5 -18 -7 -18 -3 0 3 -6 2 -12 -3 -7 -5 -20 -9 -28 -8 -8 0 -17 -2 -20 -5
-6 -6 -221 -81 -237 -82 -7 -1 -13 -5 -13 -10 0 -4 -8 -8 -17 -8 -10 0 -30 -8
-45 -18 -27 -17 -27 -19 -11 -42 9 -13 17 -36 18 -51 1 -15 7 -34 13 -42 7 -7
10 -16 8 -18 -2 -2 -7 -22 -11 -44 -10 -60 -17 -83 -41 -126 -12 -24 -12 -28
4 -34 62 -25 206 -24 294 1 33 10 63 16 81 17 9 1 17 4 17 8 0 4 21 12 47 19
26 6 53 16 59 21 6 5 19 10 30 12 22 4 136 60 209 104 56 33 87 47 98 45 4 -1
7 3 7 8 0 6 8 10 18 10 10 0 22 3 26 8 4 4 11 7 14 8 4 0 21 6 37 13 17 7 39
14 50 15 12 1 25 5 30 8 8 5 106 19 140 21 6 0 22 -3 37 -6 15 -4 29 -4 31 0
3 5 -16 49 -42 98 -54 101 -93 133 -179 142 -26 3 -55 9 -66 15 -14 8 -17 7
-11 -3 6 -8 4 -10 -5 -4 -17 11 -120 13 -120 2 0 -4 -5 -5 -12 -1 -15 10 -58
12 -52 3z"/>
<path d="M2470 579 c0 -5 -7 -6 -15 -3 -8 3 -20 2 -27 -2 -7 -5 -15 -9 -18 -9
-17 -3 -56 -19 -66 -29 -6 -6 -24 -20 -39 -30 -29 -21 -72 -90 -81 -128 -11
-46 -4 -100 21 -150 19 -36 74 -98 88 -98 5 0 21 -8 35 -19 23 -16 44 -23 87
-32 6 -1 25 -6 43 -10 17 -4 32 -4 32 0 0 3 19 5 42 5 24 -1 49 3 57 10 8 6
16 10 18 8 7 -7 63 10 63 18 0 5 9 12 21 15 47 15 119 107 119 151 0 11 5 25
12 32 9 9 9 12 0 12 -9 0 -10 5 -4 17 6 9 6 24 2 32 -5 9 -13 30 -19 46 -17
44 -69 99 -123 129 -27 14 -48 23 -48 20 0 -4 -7 -1 -15 6 -8 6 -19 9 -24 6
-5 -4 -12 -2 -15 2 -7 12 -146 12 -146 1z"/>
<path d="M935 373 c-27 -7 -46 -23 -39 -34 3 -5 1 -9 -5 -9 -13 0 -6 -33 14
-63 23 -36 76 -69 188 -116 52 -22 53 -22 60 39 6 44 11 64 17 70 19 19 43 52
33 47 -6 -4 -13 -3 -15 3 -9 28 -201 76 -253 63z"/>
<path d="M4030 369 c-19 -5 -40 -6 -47 -4 -7 2 -15 0 -18 -6 -4 -5 -11 -7 -16
-4 -5 4 -9 1 -9 -4 0 -6 -3 -10 -7 -10 -24 4 -40 -3 -40 -16 0 -8 4 -15 8 -15
10 0 49 -82 43 -92 -3 -4 -1 -8 4 -8 5 0 9 -7 9 -15 0 -8 -4 -15 -9 -15 -4 0
-8 -7 -8 -15 0 -19 20 -19 87 -1 153 41 239 131 176 186 -27 24 -111 33 -173
19z"/>
</g>
</svg>
