<svg version="1" xmlns="http://www.w3.org/2000/svg" width="1490.667" height="1490.667" viewBox="0 0 1118.000000 1118.000000"><path d="M337.7 84.6c-.1.1-4.8.4-10.3.8-5.6.3-10.8.8-11.5 1-.8.3-3.3.7-5.7 1-21.9 2.8-54.2 15.5-74.7 29.5-15.3 10.5-32.7 26.4-43.6 40.1-19.8 24.7-35 58.4-39.4 87.5-.3 1.6-.7 3.9-.9 5.1-2.3 11.1-2.3 43.7-.1 55.2.2 1.1.6 3.5.9 5.3 1.3 7.5 1.8 9.8 4.2 18.9 9.1 33.5 28.7 65.7 54.5 89.5 10.2 9.3 12.7 11.3 22 17.8 11.1 7.7 23 14.1 35.4 19.2 8.6 3.6 25.9 9.2 31.4 10.2 1.4.2 5.9 1.1 9.9 1.8 4.1.8 7.7 1.4 8 1.3.4-.1 3.5.2 7 .6 5 .6 23.1.9 32.2.4 4.3-.2 23.2-3 28.5-4.3 48.6-11.5 90-40.2 117.7-81.7 15.4-23 26.6-52.7 30.3-80.3.4-2.8.9-6.1 1.1-7.5.6-3.8.6-32 0-36.5-.3-2.2-.8-6.3-1.2-9-.3-2.8-1.3-8.1-2.1-11.9-.8-3.7-1.6-7.3-1.7-8-.7-3.4-3.1-11.1-5.8-18.6-20.2-56.4-67.6-101.5-125.2-119.1-6.8-2-8.2-2.4-14-3.5-1.6-.2-3.2-.6-3.5-.8-.3-.2-3.1-.7-6.1-1.1-3-.4-5.7-.8-6-1-1.1-.7-30.6-2.4-31.3-1.9zm17.8 75.7c44.1 4.9 82.7 35.6 98 77.8 7.1 19.7 8.7 43.4 4.3 62.9-.5 2.5-1.1 5.3-1.3 6.3-1.2 5.8-6.5 18.9-10.8 26.7-11.5 21.1-32.2 40.4-54 50.5-4.2 1.9-8.2 3.5-8.9 3.5-.8 0-1.8.4-2.3.9-1.1.9-16.1 4.6-23.5 5.6-5.4.8-24.3.9-28.5.1-1.6-.2-5-.8-7.4-1.1-10.6-1.5-29.6-9.1-42.1-16.7-11.8-7.2-26.6-21.9-35.1-34.8-6.1-9.3-14.3-27.4-15-33.2 0-.4-.7-3.1-1.5-6-3.3-12.5-3.5-35.2-.4-49.4 1.7-7.9 5.9-19.9 9.6-27.5 10.9-22.3 30.8-42.5 53.1-53.8 11.6-5.8 27.8-10.6 39.6-11.7 4-.3 7.3-.7 7.4-.8.4-.4 13.6.2 18.8.7zM770.7 84.6c-.1.1-4.2.4-9.2.8-12.6.8-21.2 2.3-36.7 6.1-14.1 3.4-38.9 14.6-53.8 24.3-23.2 15-45.5 37.9-59.9 61.5-13.7 22.5-24.1 52.9-26.8 78.7-1.5 14-.8 40.7 1.3 52.7C593 350.1 611 385 640 413.9c9.7 9.6 25.1 22 34.8 27.9 16 9.7 41.8 20.2 58.3 23.8 4.1.8 8.1 1.7 8.9 1.9.8.1 4.4.6 8 1 3.6.4 7.4.9 8.5 1.1 3.1.7 30.5.6 35.5 0 13.8-1.8 20.5-3 29.5-5.3 45.9-11.4 86.7-40.5 113.6-80.8 9.7-14.6 19.2-35 24-52 2.6-9.1 2.5-8.5 3.3-12.5 1-5 1.2-5.9 2-11.5.4-2.8 1-6.1 1.3-7.5 1.1-5.7 1-36.1-.2-45-3-23-8.4-41.5-17.7-60.9C920.5 133 860.1 91.1 793 85.4c-7.1-.6-21.9-1.1-22.3-.8zm18.9 75.8c31.8 3.6 61.2 20.7 80.6 46.6 12 16.1 20.2 35.7 22.6 54 1.1 8.6.6 30.9-.8 37.5-.8 3.3-1.4 6.5-1.6 7.1-1 5.6-4.4 14.6-8.5 23.1-14 28.8-39.4 51-69.6 60.8-8 2.7-9 2.9-19.3 4.6-6.8 1.1-26.3 1.4-31.5.4-1.6-.3-4.3-.7-6-1-6.2-1-8-1.5-15.9-4.1-29.6-9.5-54.2-30.7-68.5-58.7-4.5-8.8-9.1-21.7-10.5-29.2-.3-1.7-.8-4.4-1.1-6-.4-1.7-.8-8.4-1-15-.6-19.2 3-36.5 11.4-53.9 17.7-36.8 54-62.5 93.7-66.2 3.8-.4 7-.7 7.1-.8.5-.4 13 .2 18.9.8zM332.7 520.6c-.1.1-5.9.5-13 .8-7 .4-13.3.9-14 1.1-.6.2-3.7.6-6.7 1-3 .3-8 1-11 1.5s-6.9 1.2-8.7 1.5c-3 .5-14.7 3-18.3 3.9-11.2 2.9-16 4.2-24 6.8-9.2 3-21.4 7.5-27.5 10.2-1.6.8-5.2 2.4-8 3.6-36.7 16.2-69.8 39.2-100.1 69.4-27.1 27.1-46.4 53.2-63.2 85.7C27.4 727 15.3 758.8 10.5 779c-1.1 4.7-4.7 22-5.1 25-.3 1.9-.7 4.1-.9 4.8-.3.7-.7 3.9-1.1 7-.3 3.1-.7 6.8-1 8.2-2.3 13.9-2.4 60.4 0 75 .2 1.4.8 4.7 1.2 7.5.4 2.7.8 5.5 1 6.1 10.7 52.8 38 85.6 86.1 103.3 7 2.6 19.9 6.5 25.6 7.7 5.9 1.3 28.9 5.3 34.2 5.9 3.3.4 7.1.9 8.5 1.1 1.4.2 5.9.6 10 .9 4.1.3 9.5.8 12 1 28.6 2.5 285.1 2.5 322 0 11.2-.7 28.7-2.4 31-3 .8-.2 4.3-.7 7.7-1 3.3-.4 8.5-1.2 11.5-1.9 3.1-.7 6.8-.9 8.8-.5 1.9.4 5.5 1 8 1.4 2.5.3 5.6.7 7 1 2.3.4 4.4.7 14 2 3 .4 12.6 1.2 25 2 17.9 1.3 56.1 1.7 160 1.7 109.5 0 144-.4 161-1.7 16.4-1.3 27.9-2.4 30.9-3 1-.2 4.2-.6 7.2-1 7.6-.9 10.1-1.3 20.9-3.6 53.9-11.5 87.2-34.9 105.9-74.4 3.3-6.9 8.5-21.7 9.5-26.5.2-1.4 1.1-5.7 1.9-9.5 3.4-15.8 4.2-25.5 4.2-51.5 0-19.9-.7-35.2-1.9-43-.2-1.4-.7-4.7-1.1-7.3-.4-2.7-.8-5.9-1.1-7-.2-1.2-.7-3.6-.9-5.2-.3-1.7-.8-3.7-1-4.5-.2-.8-.7-3.1-1-5-1.2-7.4-7.6-30.1-11.8-42.1-32.2-91.3-102.3-165.2-191.7-202.2-10.9-4.5-25.6-9.8-31.5-11.4-.5-.1-5.9-1.6-11.8-3.2-6-1.7-12.1-3.2-13.5-3.5-1.5-.2-5.2-1-8.2-1.6-5.6-1.1-6.9-1.3-15.5-2.5-2.7-.4-5.2-.9-5.5-1-.3-.2-4.8-.7-10-1-5.2-.4-9.8-.9-10.3-1.2-.9-.5-43.6-.4-49.2.1-2.2.2-7.1.7-11 1.1-3.8.3-8.6.8-10.5 1.1-5.5.9-24.2 4.2-27 4.8-12.1 2.6-14.5 3.3-32.7 9-35.7 11.3-70.1 29.3-100.9 52.7l-10.2 7.7-9.8-7.5c-47.4-36.2-107-60.6-163.6-66.9-2.9-.3-6.4-.7-7.8-1-4.8-.8-44.6-2.3-45.3-1.8zm30.7 75.8c6 .4 11.2.9 11.5 1.1.4.2 3.5.6 7.1 1 3.5.3 6.7.8 7 1 .3.2 2.3.6 4.5.9 7.5 1.2 30.7 7.7 40.4 11.3 15.6 5.8 39.4 17 44.1 20.8.8.7 2.2 1.5 3 1.9 3.8 1.7 25 16.4 25 17.3 0 .2-3.7 5.7-8.3 12.1-4.6 6.4-9.6 13.7-11.1 16.2s-3.2 5.4-3.9 6.5c-4.6 7.4-6.8 11.5-12.8 23.5-3.7 7.4-9 19.1-11.7 26-9.5 24-15.6 45.8-19.7 70.7-.3 1.8-.7 4.5-.9 6-1 6.1-2.6 20.2-3.1 27.8-.6 9.3-.7 39.8-.1 43.5.2 1.4.7 5.6 1 9.5 1.9 20.9 8.2 44.4 16.2 60.4 1.3 2.5 2.1 4.7 1.9 5-.7.7-235.5.4-249.5-.3-22.4-1.2-29.7-1.7-41.5-3.2-8.4-1-18.2-2.5-22-3.4-2.2-.6-5.1-1.2-6.5-1.4-3.1-.6-14.4-4-18.5-5.5-9-3.5-16.3-8-21.5-13-6-5.9-9-10.8-12.2-20.1-3-8.6-3.5-11.6-5.7-29.5-.8-6.9-.6-41.7.3-46.5.2-1.4.8-5.2 1.2-8.5.4-3.3.8-6.2.9-6.5 0-.3.5-2.8.9-5.5 2.2-14.1 8.7-36.5 15.3-53 18.5-46.2 52-88.4 93.8-118.1 7.6-5.4 11.9-8.2 15-10 1.1-.6 5.3-3 9.4-5.4 22.7-13 57.9-25.5 82.6-29.4 1.7-.2 4.9-.7 7.3-1.1 6.7-1.1 9.1-1.3 19.2-2.1 5.2-.3 9.6-.7 9.7-.8.4-.4 21.4.2 31.7.8zm433.3 0c5.1.4 10.3.9 11.5 1.1 1.3.2 4.3.6 6.8.9 2.5.3 5.6.8 7 1.1 1.4.3 4.1.8 6 1.1 29.9 5.2 66.6 20.4 95.2 39.4 43.5 28.9 76.9 68.5 97.8 116 19.4 44.1 26.7 97 19.4 141.5-2.3 13.8-8.3 27.1-15.6 34.4-10.2 10.2-31.4 18.1-60.5 22.6-10.1 1.6-27.7 3.1-47.3 4.1-9.2.5-244.1.9-251.7.5-.6-.1.3-2.9 2.3-6.8 5.5-10.9 11.4-30.8 14-47.1.2-1.5.6-4.1.9-5.7 1.9-12 2.5-45.5 1.1-62.5-3.1-39.6-11.9-74.6-28.1-112.5-8.5-20-24-46.6-37.7-64.9-5.5-7.3-5.8-7.9-4.1-9.2 13.6-10.8 43-27.6 61.5-35.2 11.2-4.6 35.9-12.2 44.8-13.8 1.4-.3 3.2-.7 4-.9.8-.3 4-.7 7-1.1 3-.3 5.8-.7 6.1-.9.3-.2 3.7-.7 7.5-1.1 3.8-.3 9.8-.9 13.4-1.3 8.1-.8 26.5-.6 38.7.3zM564.2 713.7c25.6 38.3 41.2 82.8 44.5 127.3 2.2 29-.1 55.5-6.2 72.5-5.1 14-12.1 21.6-25.9 28.4-12.1 5.9-17.3 6.9-23.9 4.6-14.9-5.2-26.8-13.7-32.3-23.2-2.7-4.6-6.9-15.7-7.8-20.8-.3-1.7-.8-4-1-5.2-.5-2.3-1.3-8.3-2.1-14.8-.6-5.2-.7-34.8-.1-40 .3-2.2.8-6.7 1.1-10 .3-3.3.8-6.7 1-7.5.2-.8.6-3.8 1-6.5.3-2.8.8-5.7 1-6.5.2-.8.6-2.7.9-4.1 2.6-15.6 13.2-46 22.1-63.4 8.4-16.6 21.1-37.5 22.9-37.5.2 0 2.4 3 4.8 6.7z"/></svg>